<mxfile host="65bd71144e">
    <diagram id="ve6j9aP8KHw1KiRMbrnR" name="第 1 页">
        <mxGraphModel dx="1100" dy="863" grid="1" gridSize="10" guides="1" tooltips="1" connect="1" arrows="1" fold="1" page="1" pageScale="1" pageWidth="827" pageHeight="1169" math="0" shadow="0">
            <root>
                <mxCell id="0"/>
                <mxCell id="1" parent="0"/>
                <mxCell id="20" value="" style="shape=image;verticalLabelPosition=bottom;labelBackgroundColor=#ffffff;verticalAlign=top;aspect=fixed;imageAspect=0;image=data:image/png,iVBORw0KGgoAAAANSUhEUgAAAOAAAABYCAYAAADstPv5AAAIo0lEQVR4Ae1dC7KkIAz0XB7I83iaucwchq0AQQjgEscfvH5VWzoaQ6dDCyiyk8EfGAADjzEwPVYyCgYDYMBAgKgEYOBBBiDAB8lH0WAAAkQdAAMPMgABPkg+igYDECDqABh4kAEI8EHyUTQYgABRB8DAgwxAgA+Sj6LBwHEBfhYzTbNZvzmJ33U20zRV/83iImm/fIwxn8XYrXCvsbWX7uBMXFu7CPO8mq/5mnWhrfhT2KrwXuT3Kgwafs/EIH3JuvZL/aJ6l/jbqweiWhz5eViAn8VVVhksgSCCgni+q5ljoX4Ws13zNetMfhZDmuM/9h182BMaW/ZEOq7jZCtnI24mFncNW4utDm87Bo1fjS1z1RIbM8fXTFFOt3Nu73wM19QvjkUXv4xW+/ugAD9mmRazUOW2d4i02O+6boKSAqRWZXVyc3cyETC7SoTqRF1rcemutYmaHdB2HydZ8N00FTv7cNfzzUFvq4lt2m5aXLzdljBo/Gps2zBs8Fr5PRfDdfVLG//GxNG9QwKkimgrvG2uK+QyokyAfIKSN5mpXPPZyG81ttul/8fp/RZuIuxlS/YBW01sGgwavxrbJgzMjLt57dcDTd40/G4YzJn1Sxl/hOLw7gEBUpeCRedIK7c+HlONIN/Xbqsfrl/eZBuoaMBpse11n4Izqm1mnhptNbFd5fcqDIGSBn4vx2C7MOkQh/HdUTaX9cNWL0AKLFKCG7ukY7gET0WA1e6cr5BhILx86t3Egm0ouwWnT9LuDYQdKmw1sfGgvwWDxq/GVoOB6bDX/KceXI6BwJxQvw7FH4j4bUctQBJcxDuNXO1To+RYjKlCEF9Xrnh+4M5Odyu/sPVlN+Hc9RsH4Z7K0k2hjFdjK/CehkHjV2MrYjuN398xWCiX169y/Gcd1QlQtjjxqwYWi0RWI4h9FfvdIjkaWyqf7WN8vJ/gPDBGSa6XwfrfXH5LbPZBUeNYWONXY6vBoOH3SgxMvS2Dh0R8MKoDZ+cgKuKMXZUAqUtRagF2u6E1gmyj4l4R5HVaCFBpq8HpsBcS6NklX4xPbyt6C9ZnLTYNBo1fjW0bBj2/52MIlf/U+tUWfyj7hJ12AdpAK2M9e67SPdshyL0mKIkwr6TNtmqcvqwpryQkuPSGo7H1rWvmtxTbVX4vwKDm9wIMccU/rX5pchAD+G2/TYA2SCeU7F1cci59L0h3yvAwZWf8JO3sNcWug3v0HftMbBMs4m6WnEtxEoUlDNzySYp/tS29Oz0Dg8avxjbwkHD4O7+HMETJkHlIb5abobRL6sxmZvdKtiF+YXvGzzYBnlESfIABMJAxAAFmlOAAGLiPAQjwPq5REhjIGIAAM0pwAAzcxwAEeB/XKAkMZAxAgBklOAAG7mMAAryPa5QEBjIGIMCMEhwAA/cxAAHexzVKAgMZA8cF+FmMmWaTL5hSnlUSz16RMxbk7AM78+DuNWEyanAADFzPwHEBLpMx02RKqzKRoML0HTt9KZq2lCwfwfPv0jmmbtKznJupsd2IY19S9JsF9sDAcwwcFODHmGkxhkQ4rxn6bRkH/iwkEuDL1oTJwOMAGLiRgWMCXGfX8u10Q0MMsgUMJy76Fi/4d11h2/LZj17jm0BkhF0w8CADBwT4NWbmsR+1hOVuaIipJkD/JXjoqoYLCjsa23A5dVlZdE7s6IYGcrDzEgb0AqRWL1aNHQsu9XAqAuQHL7Er68Ta86dP7ktxjW0AQqKNnLuxYDrWDLbYAQMPMaAXIAmOF8ok0LYbKo7FwVQE+Io1YWKc2AcDDzCgE+B3dV1O6nbKf1Frk8RREyC3dMUPb/0TT/apsaXC2Z7XgYm37DMBiR9g4BkGdALkhy8S6143tCZA5Tov/Doh148Qq/+6vTTeQzdUJg6/n2agXYC29auM9bhlFP/pig1uR4DN67xYR41ri9jyKmM93zKWxPl0IlD+32SgTYAsMNvt5CegnrDkXPpekB+e8CyYWsWXdto1O8LaIl5grjx+ArrhpJWtGUu45m/mHVG/hIE2Ab4ELGCAgdEYgABHyyji6YoBCLCrdAHsaAxAgKNlFPF0xQAE2FW6AHY0BiDA0TKKeLpiAALsKl0AOxoDEOBoGUU8XTFwnQBp2pqcLxr/FrNm5Mt4O+Xs7mUp/GdP6cv6r1mXtbTyRleJBth3MnCtAPmrCTtbJppBQ19QBAFqlprQ2G6E8zzS2kwcsnQ2tdkzlaltWxHYAwOHGLhQgNFSFVKA1J6sTp2u5RMVn0NJ1o/hxZ7abNmFm2+6mGXJ/0sytuHWN5/oTRY0BxUCZK6wPZeB6wQY48wEyCffsCyFx1D8LMrhTNa4YejYgoETGHhWgJqlJjS2gRjqsnKL6YSWdUPxhURgCzv3M/CoAKtdv+SrhouXpfDCzoR5fy5Q4h9k4FEBvmJZCgjwD1b794T8rAC5pSuOv8SX7hpb4pft428AeT952qIZh74ncUAyBgPPCjA8/perYFsFmXV23U+mml8nJPqxJ4VYlctSFF9BcKHeV15mZIBdMHCQgccF+I5lKfj9Yn4jIHFifHiwduGy/zJwvQDljJjwAj7Fxg9kwiwU6i4Wu6b8PjBaXiK2Tbqe/ATUl5Wcy/2XMKDlS/OEX+cycL0Az8ULb2BgKAYgwKHSiWB6YwAC7C1jwDsUAxDgUOlEML0xAAH2ljHgHYoBCHCodCKY3hiAAHvLGPAOxQAEOFQ6EUxvDECAvWUMeIdiAAIcKp0IpjcGIMDeMga8QzEAAQ6VTgTTGwMQYG8ZA96hGIAAh0ongumNAQiwt4wB71AMQIBDpRPB9MYABNhbxoB3KAYgwKHSiWB6YwAC7C1jwDsUAxDgUOlEML0xAAH2ljHgHYoBCHCodCKY3hiAAHvLGPAOxQAEOFQ6EUxvDECAvWUMeIdiAAIcKp0IpjcGIMDeMga8QzEAAQ6VTgTTGwP/ALXHLexzjqkGAAAAAElFTkSuQmCC;" vertex="1" parent="1">
                    <mxGeometry x="40" y="624.5" width="224" height="88" as="geometry"/>
                </mxCell>
                <mxCell id="25" value="" style="shape=image;verticalLabelPosition=bottom;labelBackgroundColor=#ffffff;verticalAlign=top;aspect=fixed;imageAspect=0;image=data:image/png,iVBORw0KGgoAAAANSUhEUgAAAeEAAADBCAYAAAD4kQiMAAAgAElEQVR4Ae2d749d1XX3zx/RF3kHkaIItRBhD4xmLnkTJS8i8UNUQIJ/EOzx+KpNpQZFISRAHQe1IbZmzAghK0FEJrjiIQ4yjCfcJmpSQYMbFCm42PIYcVPRPE2qvKietgmJwKRdj75773X2r7XP2fec8Vz/2CONzp1z1157nXXP3M9ea6+9T/XWz/+Fym/xQbkHyj1Q7oFyD5R7YPPvgQpOLz/dPVD81913aFn8V/zXzwP9Wpf7r/ivnwf6tcb9VyDcz4cFIsV/PT3Qr3mBSPFfPw/0a13uv/7+KxDu58MC4eK/nh7o17x8CRb/9fNAv9bl/uvvvwLhfj4sEC7+6+mBfs3Ll2DxXz8P9Gtd7r/+/isQ7ufDAuHiv54e6Ne8fAkW//XzQL/W5f7r778C4X4+LBAu/uvpgX7Ny5dg8V8/D/RrXe6//v67JCA8XhnQYGXc72ovUOtyE/ZzbPFf8V8/D/RrXe6/4r9+HujXGvdfC4THNAIAq4oq/A6GNJoKC0c0HKzQVLpu8XH5J25xUMvbjf4bDamqhjRq0XElvx37b0RD/n+NjsWX4b0S+89IjEe0Mhzo772qosFgSMPhxfkdFF7TZv6d9t8KDQfMjYHyXfk/jj8Z+K8RwohAq+HIwG9MK4NqahHpaDigrGB4vEIrm/hpJ2/C2N/ymU22VzZiemeb/DdeGdJgUNFwEz/P6XmiW8+R/8YrNOABK17Xg5ixgkrW/1A3Uy7JVpH/1FXogcxghb/7iMZlQCh+vqL/1H03oCFHbObvcu/FLoT/GiAM6GaCL9a98WfwQWZ8G2PgkCG2YfaJN+EE2jfb3glM2xTRtP8AjRWdiSn/vcnPIvLfaMUOVj0IE9EVPuCTnBj5j4hGw0oFH6F8diAQNryM/075L5o+HA039Xv5UnE5/HfpQJgwKGhJp431CPaSgfAU7L3Ybk7pn1jbOKIh4AuQcGR3sRl/EdiT9p+Gro2ELwJjL0ITIv+pgUsi+zIe0ahkZbxPUfaf9D0N312ME4re5Wz6H/CfAOHUnJITFY9XaDgc0nCg09VEY8IosZ43di4FaZx6TrlyUhQKqphn1tEO2iLSreUF4KajRp0qV/1782DxzVDrV3KuPY7RE7yMbkLTNuxnMBw6afJce3UK0V7XQIOJ7TNfGNrver5KTSEYH2zmYIRNmvSY8h/VI2fcj/HnOGk/l6t80n+44DASvlyd0OO6Iv+VtPNE3hT9VwbN2T6E/wQIc/uGdPR4TKPRSIN3iCMAg6gFBVRO8Za6oV14B5Gq+pJgEOr3dBoj1XdbgZaGWxI+bfbwpU9wjG5CtMV1uX6gMWF+U0V2nu5me5EWUwMTbqMiZ8ef6jx0+JDC53GpDDpF/6mUIF9Ts4/YNVfqMeU/fWu4c8JXqoearzv0nx7E8r3X3La8G+/9rvxXIJx9a+D+6wZh7gJQGwztHBSfV8fEl6dqY6oMFay44tCNeBJt1ZdzCCG303Q7ROsoLIsA7drjqsp8Hf4T60vPTaEmbOK+kf7yMjiQj6/fzxCMaGUzK9PY1o5H0X/4rJxKVPWPHX1wHTu8zJrJ/jMXWSLh1k879F+BcKvLPAHRfyGEx2Ma86/XuvwB//WHcOrL0US5UU2Ne74DhJGmTBdoNUDN7df97FPnXZmG1+FNyKKqslel2E2WgN/wjg32GrnxCKX+zjKxKoYw0YiG/DnUaVyvo4v2D9F/6jMxyxt4eiH8x75or2hzDRP9xyYoP5aojt0hHSP/qWxZ8ZnkK+mc6D/vfxXZS/u/nP7ulrRf/ufgvwsMYelmRsRrQIIvifoDy4uEdUQr6cUH1gC15BeSY0+Hzzy6CQMdgKhabxikjLVYg70m6tdrszkchrwEYVR06vMjJ4IMTLko/xT9Fw4k1GcnX/dFeVGbaJToP+4/ec+zQDlG/mu81xDRFZ+5HpD9F38/q6m1KCJzNV2Zr+G/CwfhFBDd9C9u+IkhjCnX1DKkGGpIg+if+D113rWnw30Q3YQpHeiHo9VaJraptlf8Ak1DWGcIpHnnurOL8oXkPzWn7Vkb+8l7+wr+Q/Jf7Q7xHqrfLS/E51nrey1aYqNKPVbKxjHBXRPff7L/CoQDx5k/4b8LCGEVyukdj2oOIup05mU7QlilX2t4+xfnfdio4nZHX5xqStnjq8r6K74JMUgYkrvQH4owcJD+sZP2qi9Q+Ko21lSOIyIcC/O+DYDOupLpCMX+8+eD2aoyL8ye8I+x/5z3C4QdZ8gvRf+p7wkuGNXt5MJKWeeVdLbJf/arVwbzleSn1LXCfyKEAQa7LEa/dgGiixcCmQQUw6U6LlRQKIV+oLvu01my1LRlIadfo4sDeFmvkJpN2xNpyjqRugmxJIntUNco2KI6aLDXs9UUwLHvo6BaFTNdeosYff/pf1Z177kXqL4Uzf3mns/6hC5vId9/zrW6PnMHvo5IeRlX97JPdC0Gf8cFSwNZqByTD7DxvrvM0tQ6KVn8VnsgCeFa4mJ+0VigtXmGJ78EN88Eva1oOI+6if336epi8F8f+6fdtviv3ydQ/Ff8188D/Vrj/hMj4X5qN6s1oqa4AGCzeud+pv1PzBmES7XqcNr+48/xUj0W//X75Ir/iv/6eaBfa9x/lzCE+138RrUu/8T9PFn8V/zXzwP9Wpf7r/ivnwf6tS4Q7uc/1br8E/dzYvFf8V8/D/RrXe6/4r9+HujXuoYwXpTfbj4IC9jK31zMUo7lXij3QLkHyj3Qeg+UkWC/kQwcPP7VO+W3ow/gv/cOrZTfjj6A/97+9e/Kb0cfwH/v/+u/ld+OPlD++/179H757eQD+K/MCfdjsFpiVSDcfRCCm7BAuPsgBP4rEO4+CFEQ6QigAu9/U99/BcDdByEFwj0BjOZwYoFwgfC0BhIFwt0BjMFLgXC/LIDyX4mCO0XBGLzAfyUS7gliOLFAuEC4QLgfDKcVzRcIFwhPM5IvEO4J4BIJd4cvD1xwE04LYJdDv/DftAB2OfRbIFwgXCC8ASCcpgr8EzNQynFyKBcId58PxiCiQLhfBF4gXCBcIDxNgm5A3wXCk4PXHawUCBcITzOiLhAuEL64IcxPHYpgpZ+GhBs4/g22knQeUFANBjQcCo8DG4/0M3eNvsFgqOT084Mm6Cuy88KfwPW7UJn49cnjdPeM8ePMAj11sh/U0P9TOyvasv+0YNdpemrnbP2Zbdl5gH4YLC364f4F2sKf68wCPRTac/KAfZ/lqlR/+lrS9ryjbOmVFn5wSItXG/9dPaDVBztCLUPP+u0DmuNrvnpAS1FfD9Pq/NUtMivk6amupsXbH06m5CEb92OvEfdfEmKvvUDbbjC+uWGBjrzWL2pEP0fuqWjrI6f9Pl87SFvZL87RlztNR+6Zs3I3LNA+0R4tx98rW+85SC+7y4+y+vKvU7TZ6EQ/ySrnV56hxa3Gf1t30Nor3YB1bt8Omq/9MkOL+34c9Zkj8/6//pjWts/U/7/z2/fTuaCy29OzdQctiza362GfQJ+sQ/tC+a9PYdaZVVqcMz6eW6S1M10qjddpbWHO+nhukZYjPTky79G5g4stet6j9yewGfpiW+w1qvu8aZ2weiTfwHn0IDPNfQSh97g0PIbOefi6es95JJj52z7iCgo1ZN1H/+EJHPUTlHL7Yts2+QgnTgzeGnzH6W4HYD88ukBVtUBP1e93ALLSIUHxND00g/PHDXj9vnENP9w/S9XMgXog8MOjAO6sD+KTB+ihoxPYlbRH64D/ukN4SItVRXMGYut7B1RVA1qdeM1tu57126+m6uo/rSG/vvdPaa662gPk6ry1Bdek2gT2sJ51tvHBIS1d7bd77xAGFgxzv4/QV/CfDOEXaFtlgfnys/reOuICbdLXSofVWff72kHa96wPvvo900cIwpcfmVP3um/Padp3A/S/YMDrX4PSmdGX13fK5lYIP6PurXkDzHNHdlBV7aC1AHoMq9Tx3L4Zmt/+jIXlK/vVlzzrRTvIVFsdoL7yDC1vrciVAYD1Odbl2+fq4cHCuSPoayaAaLue9/8Vg48ZA6OwvT8Qwf3XPZJc1T4+uK50nHtxkapqkdYmhPraQkXzRgdsOXcQ95avJ0dGtZtbqgcC515covlqLoBojs0YWPCgIGxvAQxb4b+G6mj9XNeR9Bzc0QrVIPUgrB6cSyvmiXres3IZjsHTftQDCITH09WPKszsi9Vv9hFO7Aphhp6NRhmUUhSbAz7dHjZFkTBguPO4Z+sPjzKQoRtQDoBromqv3UQQbrDHDDRgawiW3L8joB16WACajRpTetv1ANIxDAHdan5Y2x/+/Z6xZ3Ev2wD7Yj3vYfBw9Z9SDWYA+sGHaf3BGPThNcB/HnQMXBTkbnCjSAZcEMVmg1i3R39+hPs7ejsDjIBwdc8Ljq1a3zYX3gCmJ/M7evlZBrKBfEZf1h8NNrdAOAJjDcE4ik0BmMG5eMQHl9K9/RkTDQOKAugAfRfM+Ltuo/WdO8JAxt+AcqxnbXvlt2vVY2x95cd0Tg0YYp3u9eJ+6Aphht65GrrrtDznAzVHNwBbLaw6dmg9iy9a4LXLAK4xMMN22TafWadzZySIW5syIDyiIUjrRqIS4UIIs0zqPI1oxA+qVzJCpA0dY8ixMnNM6gzkNvFP3ITdICwDNwZzDny1DNoi0tURrwtyuS/PbpVmFqJwwHvGSVsfXaC7MyPhtD32muC/ECx5f8vAjYHKAEwdM/QoGAoRtgBPD6QKwi50dV8WysYm6Hdgbq9fhr99P1WYJQM3BnNz9Gph9jtCW0SoOlINQP7sAnkwTYDdSyv/GjbOOSlp2WbXBvU6sy/INtrcCGGOFn3gxmD24erCSb/WeiJ4IvKtgaplQlC/DwAGMn5kHPStgClE6h7M5euK7WbdMthd+e4QloEbQ86HVgrKFuSQh+4YqI0yCph+9Kz6QnQ+t0S67aQ2y2B3rwH+S0fCdcSKdHEwz+tCLgVGpJQHK/pZt668+9pNO7vnU69TfaXkN+F8dwjrdHAENJW+FWDYlqIGRBUsJeDavvw5YScSboKwmyI/eoAecuexq1m6W5p/brRnIyCsU8gR0CZOSWfoaYJwkG62gHyYVm+/Ooarsu9qWtpr54FX51Pzvl0hrNO4ERi7pqQxD6ui6gQonz1I+9z552qOtoXzxh6YT9MRQN2Leq3NmDtWX06Iuu8JIuHcvtpsboSwTvVGYATQOqSkXWjhNaJTT7fSO0PLRyz017a7c7HWHn9O2ImEmyBc25yhx0u3X0gI67SuG63W0AtSyS602l+v09rBOZr3IuMQ5IJME4Rreya1uSeER0MGL57bm4hWAbkEGMcrg1YIK5kmwIcQTfQVim3m350hrKBXxVFlJwgDvAxuAcKmry0ziGJNhHwyjJgb0tEehBcIBV11AdnJA2pe2x9MtNjjDCjgPwuuVLQqnFdgrKg3hLP0yDBU6WcBwioaxwh3/k9pPSreWiGkn1WBF+Z9G4vJ5H5df8F/UbRoipc2BsIA7wLpudsUhBcIBVR14ddrB9V8dNS/iU4VYFFw5RZmGZu33oCo2kTarwmR97M5fWXY3ARhBbQAlIDTRkAYut00M0PviCnewlxsWARm7MH5RQZ1NG8sA1OloxnCWXo4CsZR1ukOKvBZtoMxhCCKm5CqrWgjIayiaPzfLSzRuagwS9uQlpGBqdLRDOGJbZZ1uv5S/wtyYZaeD9bVyeDsgCph3lbBLgFGEcLjMY35V/EbhTQM+wx0JvrKaHnBROBEL63rAKbx/AZCGBXNFoINEA4j1iDVjCpmm3o+TU9B786gWOykEz2ba1UpdGe+udUex0fwnwuV7NdZ8BTgzQVRfMzUo4Bbz9siyh3Q4nxzIRgKxcLirfdQhQ04o3Br75/qyu5ab2jv9CH88iNuqjkB4deCaJVh60W6fuobhWJbKycdzRAOI2hE7+7cdkZfWTZPBcLP0LJQ0fw+qrDNeRRTqYpsF9QMz7Cq2ks16wjbziP/mNb27aDF7U70nqnHQvbSgjDDDQVecUGVPxCQZBRwndTz2sFFWlxwisU2FcIKdqZsHCML/KZSyykwRunoEQ0HVucAUC/paAeeJkU7cSR8nO52ADj+VRrCFtSmLzUQ4Aga507TQ/USJp1mzpqj9mCeYc9GQBgVxBhJ10VPBmAXIh2tgP0wLc1fbdKkellRzvyzkpnn4i3MCYdzy1jW5Bd42YFIRwj/2qZ2vSh54nT0C7TNA2kCwl6q2cA2hKcgo+aoWX8qelfnORL3QV5fm9fXZDbju81Ch6NAwGejI+EEgFXBVziXiyVETkGVgaeXwkYErc67bX9My/USJr0UypvHztbj+uFCFWZNmtr1IcrATR1VxNuYkjZV1J7MOi0v8FTIHC0eXNeV1jWYJ7W5TyRczwebAFKB1ll65MaVKQgnznsV0016CVGz21E69R1IbeqfnSNhCZbOMiFbMW3nT8XIWkHbDm7UgIkHThWnu+2csKcjgnDcV7jGF8uooiVKLoSz7LH9wF4LnTASbPo7o6CKo93GY3c9gCcvj9LXYOd562tyi7cQdUtRb+q8Gmi4hV2xP+C/GkY16GRYTlyYpaCdvrc43YyoNlqi5IER8AyKuWCrJ5MYOAQQbu0r02b2GfwXQ1guYPKAxmnkrKONdKO+AEY36mV93vnEoCCCMMPTHgFzW9A1qZ4LGAmr4qm4ErpbYZZe4uQB2SuoAsBzZGLQIzq2y582sTDLzgczzxrmhROwJdJtBvVaJq3Lg3BCBpLjFWlTjxUaTJK+ZvMv4BH/xB7YnCiv7XwcZQpR7AT6dH+yDpVq9iLmd2jswlP1c5qe4jlj9Xc4T6xhHi5/CtPR/nXL9rBMdwibdbge1GSg1kBMwDiOaCU9D9OqU0yl1vJ6y5Z0G3fJEvr1dKvUdxgJYzlSAs6dIawrg700rqpGFpYX1eBORJne+xLcNTzDZUtelGv6jpYfYa2wk2qOlzHJoG7uK7wOyWYrI0NYWLvbaYkSYIjo1FkDbCC7ts+cS4HUg7BJNdfV0gayQTpabebBc8aqnxiiXoTNwI/0MMTj9uEgQvmvXmIUQ8wDYyAXA1eGXJMOXQkdLlEyUW4dwWq9/jKmUEaDeu1FF9ZxJDuZzXH78FrgP6E62p8PZn4l54WTEMY+HNh0w42gBTAbmSEvW1IAHurlUdw5H5v6YplNPsKJDJTJjz7UMJcabtahq5nj9bvpvhLQ4+Isnhc2hVluilrBlIuwzPveGuF6Ny47Lyxu6OENHBL2GBn4rw2S6fd1SpqjUewuFW7WgR2sKg+WcTSpgWqjWkmPgikXYZkNNnzgGnDPD+v1vnpDDz9lzqnneimTuFmHsVFBG+2FCNsMKOA/jur8ow9HzJPi3nI3x9BVyM68rAdcCyqrVwaa3ojDzgu//Cx20HL1mnZOpbOWqfylTeG8sCnM4ogbdrT3Fdot28zXBP+FYNF/66iRo0jsHBVWRutK5eZ0Laqcow0+AFgHqAzGeverqOiKU89OVGtk3BS1itTrIiy94YddCmXAqqDfrKf2h5Gti8EY2s5R+S+Aawia9N86vcuRJnaXijfZQHo4Xm5kdRpwL6yaZUTvkd5kwy36ypEJNvk4s6rWLIfgfv/37TbXttVzyC7Y/YEK/BdAWENSveEWYilQmrRU6nwlV1Bj96tBnR7Vu2eFaebxaMWZLx7IAHZtSPS1yfxV3cFXaSDatGtSxl3uI2xbOQmENUTd9GEAb1Qy8xaZWFrkRb2w1dlCM7X06Fco2Jp1tq6U9OjrbrXnVxd+28o8CCMabdv+0nk/udWkO29cUYWtLSOAmqVL9f+EtG2lHlyo/0NHTtq+EjIMlOjoLhsStq2cBMIqsq1twT3mQ1YtOarfn7MVzjXYT9M+Z+lRhW0ruQq6ltEbf9RbbWKpUyRjljc19qVB3GyzloH/aug4cFHnWratbIewBrn/Oer/T4a77htFVLxDFd6Xt7bEHHC9jSZkvKgXkHW22UzpwDXm6Kn9y98n8mBD+a8zhNu3gMR2lM0Q1hGsncutqMK2lV5EmyvjbKFZ6TnhGqjuNbZuW6lB7X/u8kBCycjV0dPA2aXZJ5yYBKwXEWYA+QqUh//Ska4UtZZzrr/gvwi+LtTK60b/wH9JCIdQLn9HvlL+cwFVXk+0ZAv+CyLhSxOE07QaTiwQ7j7AgP9cqJTXkw0y4L8C4TAFnf83/FcgzHPAkx+V/wp4JwKvG13DfwXCPQkOJxYIFwhPa/CA+69AOB+6oa8UREqE23kgovxXIFwg3JOjvZoXCHcHMAYv8N+0AHY59Av/hWApf+dDWUGkQLhAeEoDCdx/KhLGvHD57eYD5cSoiIGLGcqx+KfcA+UeKPdAuQca7oFSmNUrEFaR3Lvv/S+V324+wD/n+bWXym9HH8B/77/z+/Lb0QfwX5lO6p7NKv7r7jvOBJY54X4MLhDuOQApEO43ACkQ7jcAKRDpD5EyiOnuQ9x/BcIFwlON4guEC4SnGckXCHcHCEdyBcLdfVgg3BPAaA4nllR0t1Q0/FYgXCBcINz9S3zaACyDmH6fXYFwgfDUBxAFwgXCBcL9vsinCeIC4X6fXYFwgXCBcMeCqIulmAz/xNOE2KXed4FIf4hMcxBwqfddIFwgXCBcIHxFQ7xAuEB4miBvh7B6aMKQRhGsRjRMro0N5MfOwxkGAxoOpUcUjmhliCfg6LVUg8FQyXmPEx5nyER2XvgTsLnXnPD6S7RnzqwhmxvS6nqX+dUxrS7O0xx/JnNDWhL1aDn289ziY3TWqW4+uzRffwYso49DWjVyOTLaH819sc+gPxlVPvlVWrzG+OaaT9KJJ/ulbtf3fpKWEzrw3jz7r7qGFvc+FduVZc9TdOKT19R+nP/kkNYbQH/ikxXNS32ZNk02w2/wXzIaPf0iLc4a/80u0NrpLpXEZwib6Ne+mV2g5UhPjszv6dyBBasHG+QfOBPZ7smIff2e3m+7rtMHnX7M9VcVzQv9wX/JL+GWh6sk2zXsAR8+n9vqOE36YS3a3i07D5D7TPH4YSh8XQv0lOkvR2aMB7DsdB7AMrNAD50MQGyeuKb/97mfisJHmML2S8V/sBVPqdtS/4/P0t38RDnn82qTyfOx78/0Z67911gdPV4Z0mAgPB0JjxQcrJCCpPd4QTwG0Xl0oXpPPzlJ4dD87T9iWAN9sDLS+vAowwj+OTIXHrhSD7gJGSiTH1+iPVVFc0tjpePsKh79aIGXq2910epAGw3KUM+YluYg95IBr9832gHkS6valrrv1SHtWbUDgxyZd99r74v1w38yhL9Ki/jiNIBa3/9JqqpP0okGoCX1XHON+VK+RoTw+t5rqLrGgeWTX6Xla2zfWm+OPU+Zdl814PXbRPapawr7wUADg49mm1kX/CdD+EXtPwOec8f1owzXJlxPqx5q7sDr3AE81WaBXD05Mmg3v/AineP+DShdMCrdswfrwcK544DpXAD9jOs6fZCWj+cNONIQCR4zimdv82M+nS9tC1H/i1c8r3RIMOPHffIjQv2+oQvgfCh86tnRBXIfRZon4/evoWJBruw+eYAeOppxPY0Q9q/hh1P2n7rOGWdgYx7V6g4sILNlJ38G79A4fPxr5ufgffbJz1z7F/dfA4T1c4VHKwMa+NQkGq1QfcqDsHoYMK2Y0Hk0rIS2Q/KfhlhR5Z4wpBs5MIeeNhkJkJtxDk5koEx6VLCcc6NRhlcAQidalfoAhKvFlxw7tB4Xnu8C8J7M/9LZVQYyIDumpSVXhznnRcs5Mv9L7X1ZqMN/DBT3GIFxjQEnRKhtYH7yKVp/ckjzlQRh6BXOA5AOmLPsQZtPftW7nvX9DOQwitfXg+vngYZ7/ecbbba60F6CMAOtht47Z2h5Vo4GpfZ8DoCtFl50+tB6Fh3ItcvEbaBf2VjrBlxD4P6eQt1Z17UBEI6+tH/FoDydjpwb4azb4/Nyv/jVFza+qHce9/T+8KgDA/S9338fEe1DXrScIwOYV0Ff2i4X5oBPXwhfdP6bCR7ris8Kfq/BLPhBRc+zjr/yfGwh3PCZm3sF90MDhEf6ub6ALEe9EtVCCLNM6jyNaDQyiWYlI0Ta0DGGnIY6nkcscNrKcJ9TOMKJEhjbz8nAjcFsgdWk000r60h03klJy3016VPvBVGwKB/JTNYX/OfBRwFVBm4MQgujWEf4HqJSAbYG7ov7A3lAuwZqjj2yTMouXMv8Xinidu1I2Wxl4D8Gpj3KwI0BlhctWpBDHrpjWDbLaHt8mAcQVpGxH2Gr60EEP3vQRNCZ13V8gdxBgvVLfL3wn/3S5OhPf3mGsIzBwvLtRxVl7T9OD82EEJb7im0K+giiYFE+IeOmuRXMQ0Al2kl9XBr+kwGrIt168GOAWf+t/a0+8+Cc54cGX6U/c/tZwn9pCI84YkUqOJjndWGXgi1Syk3who4o7ewqNq9zZIRmm3UKThTh1BK9vvueTgd70SradExJWxvGtLo0T3Ne1Gv7QjpZffBIgy+6kXAIe8DUjdLD9/G3JDNZX7AlBpVO40Zg7JySBrQagKb0XkPL+22UfeKT7vxxjj1Wxp8TFiJhAF5F2W3gbrDZRP/wXwwZnbKNQNQxJW31n6E1k1a250Kw5cjoNohyaxubIFynvzOv6/hBWnbnjRPzz7gG+M/7UlURik6letEhR05dUtJIa6qISwKu7cufE3YjYfulrW2FHie1aqIq/zryZJ4yKViv7dED9JA7H17J86doc8n4T6WF/ZT+UzuF+fDAl8gcRPdBLdPg48bP3H6e8F8SwqMhg3dMK9K8MFMuAeHxyqAVwkqmCfAqEEbBFtvCnV48RzjRAlACVeLc+mOqkGojIVwXTSGF7BZmmb7m5jC/a1Ld6y+ZOeJE6nt1WM9VJ69PkpmwL/gvgrBKHVe0aRAG0PabwizMxYZFYDn2GBm0XWQUhKgAACAASURBVGSYi3PLAC/PbV8gCJv51hpwPA/bA8IqisYXxsJBOhcVZmmo5sjU8IaNdYSL9g3paIZw7nUdX6D5BTu3/P7pg2p+PPJHCsJmLjD68lVf5MH8af2FbL9YPaCpNDa3ESDM844zmN81qW5hvtLTeXQhTmmHdrTIqAgPnydS2mFhFtruPEBP8fmTB+juSoaRCOGL1X+4LlzzzCxtmVmw1xf6jv+uQZr4bJM+xufc8JmzfjOISUBYzwdzdbKCpZgP5nRxDEkRwuMxjfk3E7A5oJ4mki8mCDMsUeA1VznpaAajKQBjORV1i9EuIlynvRjVJ2Qm7OuigDCqnk0V8/r+oa7IduaDz08C4bDSOZpbBqQ5nXzpQJjhiQKvuFjKj4bbZV6kZcCcBwfmqOZ/azAjol6gxQWnoCwXwqedAjCjWw0Q6vlna++FhgiqbS3MGyAcVup685UuBKBDmN90vtjFFLP3vtWHgqktVaDvZByFp9Kyl4z/ENmbOfQfHj1Ad88Axk3ZhOPBnLv1mR4QpT+H1s/c+SzgPxnCZq5WCUAIv6nUciISVqlmr82IhgNb7j4A1HNSzTkyU6QwfFNDTYRVIhK+YOlo3Z+KijklbcAYRd3qfFhF/b/0Ls6LcHauJSUzYV/wXxQJq9TxZkXCbmRq4YilQ7bIyqaaPVvd9HgK1Oo8R76AvVu4dYEgrKJKJ9XLsOsRCTOEcUwBLU9GBrBue4aWF1B9je8JvYRJ9VWDOTMdzdfrHr255RYI/8qmiMMIdLIKaXzxuwVVaQhbUJsvexVNcjTlAKAtOsMXfI6MA4IUYKNrF6CFz8qTU3ovNv/B76EvsVQrLFJjP7cBuMnHGZ+543t1r4uPMqzngw3dFGidpUcu9FIQTpz3Kqab9BKiZo60E32zjGvPJr+GE7tBGJGkv7QIeroVZgkpZcwt1yC187SerQkI59iQlpmsL/jPA9tmF2YBkm7Ua+ZaVfRbn5dh6ReKJUDtQlhB2w5E1T8gD3IrYdDRNI/dOCecWcDkQir5Ol7L+34EtBwZk3IWImAX3uFrRMd2GVPedSESj5YoRTZrEOMziCEiwJIrZQUQxe3Nl7lKX6c/bw3eBLASEFbAbLGhWUao7g6ibkTHUXV0IMPXfEn4LzUoEc/biJmvUTomfZz1mTPsG9YJ2/lgJlrDvHACtkS6Tbi8yYNwQga9jld4Uw9Zjy/Ddm7+ETehB7YJouEYZDKYm/XrNtHyI2y8UUMYa4DDZUymCMyR4X6UrHCe38exSWaSvuC/GMIvkQ84RKgyCKW28rlEkZMLSQYwjgGcc+zxo2cTVQfpaN+2tmtK2OzYCf+F4MLffgQJ4MgAk9rac7qNWNVcR6c5MqZ/AcBrB9y09BlaO+4CPZ4nbr8uHS1bcGvYpqJ3GSLY2GE2SFfKYJa+oNPnZB1iRJaAnpJtgXBaRvcfLYfyrlUPCsTKcC+q1yC5JPyXGNDEGYNw2Ze+xqf2x2nrtI8tYPV9IH/mfI/Af0I62p8PZqwl54WTEObqZzeKFYCq0s3Ohh4KwEO9PIo7z5Fh2U0+wokunCZ7raPGerOOpXizjlVVzdw0P2vA7VQ6n10Vir5Mmpj7etcUZkUparPRhgvw+JoM+FOgzu6r6SlKOrLkNbTYOSrcrENXIUvLjjit7BwVbBFt2gpoBiLDs97ZSiyoareH547Z5vNGj50DduxRIG2BcIPNbDvuPwtNDRz9tw8j7EQVb7KB1G+83MjqM+B2NtnQG2i4qe4cGaz3FZYfYY7XmadVoKyLsF5U65rDAYAu4LLRsXxdeN/OC8ubfmhfpSAyNilphhHm+cJUtK5mDuZTnVQjf9HaY+ILWUHCWbpkCrOiFLVZq9w8l2lAK4La9O9sSIH5URQruX0BMFv223lhLSNf56XiPwVN57rHQvEbqqV597H6M8NnEw0+mnzcG8IaknCstzmGgqBJq7gFWu75xFpe7H6Fdb5KZ6Vhq9LMDizHI2drS8jUO4FYoRwZK715r3BdMaScudO2yLhl28p2CKOvMS05S48qbFvJVdBu/+uP2S0yq3lbKe3KtES5fK1NkbCSyewL/mOgRMeWbSLzIKzhqe8/vg9DcD9FJ7But75Pe2xb+aQp7FK6rhGhj+tUkXXdH+xybcqxWQMd12Wh6UK4fXtHbEfZDGHoc+dpK6qwlaQXrebI6AGB/xnoz8KPWJ1tNhuWFbVuW/mOWSZV+3eOFiOb2yCMeb/juoAHeoRq2kkgrCLr2h5cewA1VCCjWEjJzNpK6QDqORFYswyivVnTj76uaCcubG2JpUu1vWl7YG8NrMDWi8t/wjV5xXA6AyDdozwQc6+z2ccaxK2feXN19OZB7FLvCR8ag6kcJxh8GPDDfxF8nXRreS+Mnv2/4b8khJPzvAGsr2A5+M/9ci2vw0iu+e/iv2b/tN1P8J+Qjr7Usbi59sOJBb6Tw5d9Bv8V0PpgncQf8F+BcPdBBfzX9kVZ3k+Dpvgv7Zuc+wb+KxDuyWw4kYFSjpPDGP6bBDpF1gc2/FcgXCCc84V/IWRw/10IvVeKTvivQLhAeKqDiAJhH6qTDjIKhLsDGIOXApH+kdyVAswLcZ01hLFWuPx284FyYl3AwIUV5Vj8Uu6Bcg+Ue6DcAxn3gLhZR8/o8Epqjpvs/Ov/XH47+kD579Wf0Pny28kH8N97jz9Rfjv6AP779f97t/x29IH6/z11ms6X304+gP9KOrrniEHdhB0BVOD9zyodWADcfRCC+69AuPsgBP4rEO4+CFHffwXAnQCMgQv8VyBcIDzVKF79E5couFMUjMEL/FcgXCA8rYFEgXC/LECBcE8Ao7m6CUsk3Bnkyn8FwgXCHdPJfQcguP+mBbDLoV/1/1si4RIJbwBLO6soEO43H14g3D0VXSLh7hEww7tAuHsqGoOIAuESCXeG50Y1LBAuEJ7mnDbuPwZKOU4O5QLhAuFpFpXh/itzwj1pXCBcIFwgPDn8LpYBQ4FwgfDFDWH1gIYhjSJQjWiYXBsbyI+dhzMMBjQc8iMKHaXjEa0MB7pSrKpoMBgqOTxOuP7J0VMLb96LRgivPkGLHzHrxD5yJ51Y7Qas9S/c6Txc4CO0+IW1xjnYE3dUNN9TBn0uS/au3u/YYtfApfpL6jHz6Mp/qTnh5w7R4rWmj2tvpxPPdUvdrv/l7Y7N19HiXx6L5mBzZBi2kF3OsOXEbRXNC3216nnuPsdex8eCLvgvCbR9n6XFD5r2H7yJVvf1g+X6HTfRUkpHa1/7afWmD9Icf298UNaFPmqZ6oO0eMf+6Po2SgZ+a4Twz1bpnhuN/27cQ8/+rB+wkL599t6Kbvja2Wge+rWv7aEb2DfVHN0jyPAcMmQfkWz52ZKjw943Un/QldRj3qvtuTHRX1s6+sRh//vvRLfU7fr97vff9bR4//ca52DV918gs37/9TVf8Jnb3zvphDCnjT6XW+xNy3yPTtxxvf0f/khal7KjaZ3weGVIg0FF7oOTFN7w+MLBCilIeo8yxGMQnUcXqvecxxSav/2HJGmgD1ZGWh8eZRjCP0vP5oHX7QlOlJcaPUGLlYXh+uN3UlXdSScmLOJa/8JHaP6OJ2id2xkIpqB3XvVj+xVtS8pg0PARc/N8JAnh5cfbBhMZelohfEj7z4Bnfel2qqrb6UQK2Inz6395Hc3fdojW+X0DOBeOOTLnX8WA4Drjm+vaIazslSCcoee5+2h5KW/AgftPhvBnlf/mDMTW/+wmqqqbaHXiAiiAnOH5wQSE2/tavakitgX2rt/xwcgenJu76bO0zjbuu1MBOWy3ETLsM/iP4eYfV+meygLztWN7qKr20LMd19Mq3UqH1cn9vfa1Obrh3lV6jXUbmPrwxIBgzkB2LgnhR461DRTa9cCe6saletDx2jHAXe5Tff8JEDt/6rD+/zUwXH/CfP+Jsmk4A57zdxymdW534ovqf3A+gGwdzap+KgrfBxSXnwjg/cSdtPiE2zcGDQzP6xMQbpcJBwF6ACDDHv5rSEfr5wqPVgY08KlJNFqh+pQHYfUwYFoxofNoWAlthx7UIeM9NtEQbuTAPEePC8bNfK1uQgakcwQ8q4/cb+H5+hotf6QFjk57DU/dZjGAntJ9xxMC/LU8bEpC2tiRlFldo3UF+j4Q/mc636anBcIAY3XtfRaerx6j5WslqDXBSrdZDICmdN92yETDOTKmj+eO0bqCeBuEtU7lYyF6Pd+mZwMgrCD3wTst0B7fT0sf9EHIIGo97ttP6wqIMoRz+gKEq5s+6wwYtD2Lf8bRefi3Pq901+02Sob7TEfCDKIajP/vLD1yYwxQBmn7UbfHPeHDVZ+/J4Cn6v/eVX+A8LOz9JoCtAzEX/9sidoh/C79ulEPBh+xfkTwVWhPQySswPORL1p4nvqe/v5LwZMh6x11Gx+Up0npvuOwEA1refV/5/XzPVq+P5T/Hi3f4dpnYHzie7SuQJ+C8Gk63yIDCFeeffJ1ZKwTHunn+gKyHPVKdAshzDKp8zSi0cgkmpWMEGlDxxhyGuqDKkhxqz4cPdznFI74wONoUwZuDOa2iNJANQBuCsI4P/+FJxphnyNz/nVE8QkIP34nhYOC+Pr5uhr0NEJYBm4M5iYA4z0Dwxq4Wl6CcNUo4/aDCL0ZwtA//5eHWgYNDXqWbqdw4MAp7PCI+y+GqAzcGJYWRrGO8D1EuxKE8/uqI1wV6aKdq0/r8UFtIuYAwv1l7LXBfzFAZeDGYG6LOu37aHvD11YFkBs4B4ATIawiZRmS6hqO7aEQ5vG1sU0JPQryQsSPKP7GJRutm6hdff954ATMZODGYHajUOm1gaoHtDSEoX/+/sN5sI+iYLd/RPENEFbX2yxTR+5KFtch64P/0pHwiCNWpIslCBripWCLlHITvNE8TDtLEM3RI7XbpHPqJowiWJ2KjmDVMSUdQg4jrUg3olcVecsDAKUjR0ZdSwM8H7+flt257qppjrpBTyOEdSo6AlHHlHQILszVRro5XW2OaZkGeKItImUVwcsDCWtLg56l+2jZnQ+v5Hls6ML9FwNUp4dtlGmg0zkljfYpCHfpaz+tmtRzbLsFJN5DBB1dB6erzbGPDPwXg0qnoiOgdU1JA2wKYDLc4/713HHUfyuEl+gRdx67cW65A4SFdLz6/osgrFPRYQR7vmNKuk41m37U95+XRkZ0+kWaV5G3PADwdUBGiILr62gGrNaVI6MHJCdMSt23QUMf/ktCeDRk8I5pRZoXZsglIDxeGbRCWMk0AV4Fwu162JRpHNVNGELYzNtGoNwICNcg5WgTR4CX55tTEM6RYZ0N8Hz8Tpq/435bZLZ6v5r7ia61DeZNEDbzthEoNwLCNSTd6DZ43SjTAE8VefO8dR8I307zt91nC9Geu0/7OEirJyFs5lIjeF0ICE/Yl4rG8cVz0520niryYshCt5dS9wGtAN5TRoSwmZONINgJwgAvR5aZEK6hzVGre0zAE4A+toduuNfO5SI9jXnt6DoaYS7rV+noXAibedsLAuEatm7kCqjynGsGhJ+4M5oz9gGZA9h2GRX5415H2jtR5NUAYT0fzNXJCpZRdZZB3iQQHo9pzL8M2C4QZh04ToO8Tp+bC+EnaPkOd55ZQxMVyBaCMoRzZGzE3QDhVadIzIA0lR5vTGtPBcKHaPk2d545gK+Kgttk0hBG1bQdOPSA8HNOIZmJzP0UurUb918UTU4Ixqg9Q9A7JiLhjn2hUGxOTG8zaD9LSwC1ZwO/x8f+MhcawqhAthDMgfAqPXJvnPa10bIMSfX+z5ziLpMu7pLWVsCtU89n6Vlcw71yYZr6/qsjSAPGCwbhw+I87vr9boFVG4TxvpwatiBuB6wuPGvTo/2BorT5RHob/pMjYTNXqwQghN9UajkBYZVq9tqMaDiwpeEDQL1TOlrQ40Bxs1+qm9AAxYeYkDLuFQnLAFag8+aMJQg/QYutMhwF49gA4eha/5lURbZXhMa62vUo/xnQ+KlaIWXcKxJugyvAlicjzwkfokVvXrkHhCN//ITO49q9QjUNYvgvhmiXFDGDLXVMQFilqYWUcUbU7Rdduf32h6v2Sbse+M8CjiNOgE6IICeOhFfpHm+utw3CbQCGfQ0QNuD1ricxl9us5yw9cu+cWcajl0ul5sPV/28IYVMZvbGRsAxgBUNvzrgFwmIk7UbVeL2xEAbcU8Vk8J8M4Xo+2CBNgdZZeuSSLgXhxHmv0rlJLyFqThdmeXpcezb5tboJIzBJIPxnUhGjCCuGVuoIiMYRsIK+WW6kPkweMDlHFSHnyHjXkIYnllpFS5SgX7yutB4esCj/RdCRATZ5YRZHjABkewTcLqNBLUJYDRDsIDP8PGyE7NiUKPDCcqxoidJEEM4vlooB7sLQfZ2CcG5f8Xrf9wDqKN38WVrMiIA3RiZVHS3DMgUiD3ouCBW00/eEjZANXBsjYHeAEFcvwwYso4qqoztBmPuyx9T6ZvX/G0FYBuHkhVkMx8O0KFUyo1+zJCn8f+O/w4FAng19IRwshWI7hXloZae0TtjOBzPRGuaFE7Al0m3C5U0+PGUZ9Dpe4U09ZBlfD9u5+Ud1E3oA0yCNgSuDmWGUPq6JKegTX0hAOWspVJstKXjifLz8acPT0a/+hGLgymC20TPDLTweE1PQJ/7ShXKODOtNp6N9W9rsTenB+Xgp1kTpaF6H6wFOhmV/CJsK5sa+Giqfw3YCgFfvcNPS+8U09eQyeoCB/18JojFwZTBLbdPnUjoQecYp6Ge/Fp9LR7A6eveXP2FDjjlxaVFaD8B7lp495m4oko6+1fdfBGET+XnQkcFsU8AM3PAoLyU6cX+qsKq5H7V8yLMr7A9/94Gw7t9foiT5Q/ebgLA/H8xYS84LJyHM1c9uBC0AVaWknQ09FICHenkUd25k6rXJCcCz+GYeUxDWKV0LLMzJhpt1nLjjI1SllgIZsJ+4gwuunCgZxVleetl5byMgXBeWxTtz4SbGMijePGT9ceyglVjO1KCHBx3Kf1EkDOD5MMJ8a7hZx4nbrqMqEU0yEE/cxoVSDFFTweykjnNkWJ+qfq6QKo933apl1PW0QLguPov16J227Lzw+hJ20JKXRcF/Mkh1Spo3usAuU+FmHdjBqmqcl3Ui4XruV4hoTUo63ZcZADgbcaz/md6Iwy0eW71J2EwE/dZLlFAtvTEy7DP4T4amDzXM7YabdTyrUrZyVCrrlCH87L1cuGUjTxRVYQOPSE9dNOZCUrfT0aqdF27aZEPpVyn3WI8CNxdh/Uwvq5LWCMM29f8rQFiDzG6asX5/vFkHNtCoEnOlDGf1/RfqR0rZS0G7IG2CsAFkG4TrOW0homVbkjKmf2eDkfUn9AYjYVSOa4T/gnS0hqR6wy3EUhA0aZXU+Upe74vdrwZ1elTDVqWZHVKOR87WltXAB7CRy9HjqNy0l+omFCJhBRl3KY+wbWU7hHXkqT6P2of6c5A241ARqScXw7FZRuov1LFGJ7Aeue7nI7T4eAjrHD164KD8J0IYsGzetrIdwhrkov/qTTRyZOygwNclg1FFrbV/8Hm5clJ/7vvo6xidwFrjWsd1SejDHgZKdGzZSjIPwhrm/nW763sNqFv6eg+bhSjom+8RbFv5Zy7QpX60LMNdL5My7WvfdJGxgwtcVwQ6Tim7y32EbSsngbAGm2s7w1vD3vevlvOjWkmOdTC8UUTFu2pBxxzd40W0kMvR42zX2bjMqQnCWDbUvG1lO4QRkbo+s6/DHbHqeVdPPi6cao6Epf5CHTkyiN6dbTKxbWW4W5eBufrcpXT0phHsMugITuSorhzdiDzvtfJfCsLlfLTHtR9tp9YJW8hEYG6sNr7y2uH+S0KYYVyOSR+p/1+ODstR2MXLjdLj1/BfEAlfBlTc5EtQN2EqEi7nWwcoyn8Ftq2wDeHLf8N/BbTdBw/wX4EwR9KTH9X/b4HvxPDldDv8VyDcE9rqJiywbYVtKkug/FcgXCA8pQgd91+B8OTwZZ+p/98C4QLhnhzt1bxAOC/tXCDsFIZt4KAD91+JhEskzFDc7GOBcJxi5ig35wj/qUgY88Llt5sPlBO9YgBbPFDeK74o90C5B8o9UO6BxnugFGb1CoR1if6Zs3S+/Hbygbo591dUCb/bD/4Tld9mH8B/b/7bb8tvRx/Af+u/+E357egD+O/M2/9dfjv6QH3/FQgXCE9zAKFuwgLgzoMN+K9AuPsgBP4rEO4+CIH/CoS7D0LU91+BcIHwxQbhEv02R7+ufwqEuwMYg5cC4e4AxuClQLg7gDF4KRDux1/VGk6cJsQu9b7VTehEwi5gyut2GMN/JRLuDmL4r0TC3UEM/5VIuDuI1fdfiYT7kRhOvNRBOE371U1oIFyg2w7d0EfwX4FwgfC0BhK4/wqEC4T7UbRn6wLhfkVpDOEQLuXvPCAXCHcHcElHd4+AGfoFwt0BXNLRPeHLzQuE+0O4ADcPuJKfCoQLhBmI0zgWCF9oCKsHNwxpxMSpjyMaJtfGBvJj5+EMgwENh/yIwloZnltIw4FZS5aSgXjSHkfXJr9shPBL36DF6811XX8XnXipG7DWH7jL2cz/elp84O/8FPhLX3Let2vy5l25DJn1B5xNx73P9y464SzB2hB7jD74T4KLOvfAMn3oKnM9V91OH3ugG6xuvfV2+iO+nqtup5kGPZBtep9t/dhcRX9067HY9gybJ7EH/SX7OvhPqrAjmY7+8XH69Izx38xuevLH/YCFfp7cUdGW/W94KfAf7J/VBSbs4/q4m540S4dyZKD/B/t30xZuP7ObHhRtfoOe3GH73LLjAP0gWKLk6alm6dOBzewz3H9JeL3yPH3K8d83X+kfOX5ze0VbvnIq6vP7X3Guu5qlTwky6784Rd/c7lz39q/T94OlRTl6WmVe+br9DPizqGS7e0P45efprq3mHt26iw6/3A9qiC4Pb6vo+n2nojT5S/t20fV8PVt30QNhXy8/at9nuUrQNaHNKXuyIuHxypAGA+HpSHh84WCFxgCe9yhDPAbReXShes95TKH52z6SkNu3yBiwJu3ZZPC63aUh/A39XFgDwvXDd1FV+TDLmYsFGOfv+gatMwQNTEPALh9uAfxLX6I2mRN3XU/LhwPAH76LFh3dG2ZPK4SX6UOVBd2tC/pRhh+bcO3wrbdeS9VVn6sBfuvC5+iPqmsD0AL21xpQh+8J4Fe2WNsYzNsPttucZ4/TZ7IvLYP7j4HiH4/Tp/HFaeDzg2d2U1VZKPqymXBWOqxO1gEgPviMD+Y3n9lNn37G6s2RUaCeOVAPFn7wzAHaUs0GIH6DHpyBDccNeP3rhE2spwbzj4+bNoGNjdXRz9OnHPB8/2ntv28G0EsCXJJTOmKYff8rs1TNOEB95Xn6Mq7RA/Epc+55A17fPtiRoydHZv2Vr9OXn84bcPSD8PN0lwO5l47soqraRYc7rrlVc9NKRwzOl/bNUrX10RryLx0BcGd9EL/8KD1wpG0QMKHNCXuUre3V0fq5wqOVAQ08aiIiXaH6lAdhDdUVEzqPhpXQdkj+0xDbZTT0GuxxqbjJr1MQVlHl9V+y8Dzzd7R8fUUePBmsyaNu40IQ4Fa67/qGjYYzAHu+VebvaPkBR6ey6e9o+a74GjbEnhYIM6xuraF7jGauksDnAKuW5XOAYgxVRJbV3LIfxT5wjG59QAI06+KjtgOfexgJt9s8gT3qWtJ9MfhhB8PQPUYg+jeGVwwit136tW6P/hjsWvYNenD/8cCGN+hBLzrNkQFMQ+DqyLva4ejHQMD9G9B9hoEM6MPOWA8GBdVMHDHjeiSQRrD6xSkBjHmg0vp1e+W/CK6z9OUwygawXTDj7+3Pe7Z+/2kGMuyA/jY9OTK/oc2CMIPxpRq6p+iBrTFAGVjtR90ePvYjYYAzAK6JmKttz9uIOQPCk9mcsseCHrY2PMBhpJ/rC8hy1CsBLoQwy6TO04hGIxVDB1E0N8TRkalPZ9pTy2/OCzgxjmhl4MZgboleDbgrF7gShINoNbbnLJ3PkQkHA1EbfV0bYk8jhGXgxpBjMCaOCqq3UxQ9I7q86nNkAc/tZUgy8HCEDX9067IwIMiweUJ70n2xval0tAzcGMw2Uk3DV8ugLaJPHYW2gDyIgkXdocyPEfUKkboHT/m6fP1axo3C1fvQH8Ab5/H/G0P4lAjcGMz5EEbbLV9JR7ifCiNPpIRr6Mr2+HZrmRw9zTK/ofWnd1MkI0X2vdYJy8CNIWeB1QZhtL1+3/MxyFWaWYiwEaVufZTqQcCRXXRXYyQ8mc1Je+pBR9s64RFHrJj/DeZ5Xb6lYIv52yZ4Q0eODPeVaw/Lb9IR/8Qx9HQqOowYAcIuKelQ/4m7Ki9FfP7wl2jZnX+uhHnjHBkPwgCuGwWnBwyd7GmEsE7rfmjBwkaBcNKUdBP0KgHOKp0cR841hKFPwVsCbobNk9jT2Jf1C+4/H0KApk7RRiBS6WQBdMF8aqQPAFNRZC4E44jT1wk9gUwThGs42+vy54TdSPi3pKJeRNVOivzJHfL8Mvznwwxg1aneCERdU9IAqopqNSj9NLOGXlXN0peftnPF39y+24mOrT3+nLAbCefoyZX5On3ZnQ9PzlH32axDp3Uj6HVNSQO0CqgCKJsg7Ka/jzxKD7jzvdUs3eXNLU9gc5M9uRAeDRm8Y1qR5oUZcgkIj1cGrRDOkeFusu3hBpt0FCFs5m0vCIShO4Tj4bto/q4v2cKvl76k5qO9/nNkXAhD3i3sct9zX3e1pwnCClYV9YZwAqoqHT0xhAFeBrcA4Syb5Ug7tqelLyftLkJYAa3y5mQVBDtBGMBkcGdA+JndQbpaiLZFmYZ0NEPYXNeWGcw3m2g8Nd+LPpDqm5klyKeK0kQIm8KkjYEwwLub9FwyXodzvSaaftq31ysCM/bgOj7FoBbnjTVk3ev26lQrDAAAIABJREFU9HA029QXZPD+9q9T3faVr6v58cgffSJhBcYqjjw7QRjg5UhXgPDbDeloD8K76Pptdt74zMuPqjnreqCQbXObPTa6x/2XSEfr+VeTNCYFS3ci1wXcJBAej2nMv2r6WAA1v49j3c8E9tRtNucFnBhGqph/na+CaBXQ6R0JfyOYozXR6UtO4ZaBWzxvnCFTwxVR8PW03FrN3cOeTYGwriy2qedj9LFbb6cPzaWKvGRI6jT07c6goCuE8+xB9bQdgAh9bSKEUWVsI+o2CON9YT7Wi7TTMqi8tvO2b9CT6HuHU1DGEA4rnb2U9W/pTVSFmzlpFHepCvEw8jY24f83ioQ3EMKoRLbwSkAYUaepdP7+01/XFdnufDBD2JtLNlGtJ9eiB4Bt68vIxFXXs9GcNPwG/7WlicX3s4FmgSXqefu/CVXPNSjfliCsK6Zt6vkUHUabbUEh2MvP29S0iVZVepznjTNtzrGHrwX+kyGswGqXuijBVGo5AeE41Tyyy5CqigaAepSOFmTA0kns2Rz21r3ANxGEz1yIdHQCeDU4g3QxgB9GzKFsSkaKbsO2ZzbGHvivTvfWcMlI7dayNjUb68F7x2hm7lqzhOZa+tCtx9S8rgWz2z4F4WX6kFfIJYEx1+Y2e3L6sjbDf36qdyPT0YCZUxTVVtwFSCZgV9vYKIOCLl6Co5cVefPYBsJ2UGCibHXejdb5NUfhWNJURQVdsAn+iyC8YeloQNEtpjolRMI4x5EyzzFjKVJloZcaFKjz3DZDjyreYvlEXxwth8ewUMy8D/8xUCY7TpDaddK3cR/P010MSSUnQ/gM4LzN3ltIM2fNP3vzxjk259qjBxfwnwzhev7VsEZB0Fl6VCOIAcmpa+eNBJy9iukcGaicxB7HhM14CSfGEN6owiwG6zdo0atS5vP6iOVP0fKjALA5Mnwd7QVk/e3hvuC/GJ4S5HRRlAxPC6VYV/xeet1tAsJmmZD6h8E/TfCro9buNnv2ZPVlrwm21ICrI045YvWAVssyqISjSl/H18vXH8IwR3+OjHs9/rpkOyfsyrzpQjgF+cR5XEsM4VMCLIUlQCGowr/VHHLafypCBkjdaJZ1eOftnLBnqwthT54Bqyuda/05Mljq9PTueInShkNYhmUWGF0oq/R12sc2Qo4j6nD9LpZIRUuUPAhn2DyhPep/Sdo72s6/MsYa5oUTICXSbcLlTR6Es2TA4BDyDfawyZt0hBMZKO4xBpkMZreN/DpcJqTBe+IBLpry1yOzDj8dnSNjwY5Cq3QUvRH22L7gPwmccSW0DDmprX/uGH1swd1UIwFaFVk3vWfBp6JrYblUns2T2IM+m68b/vOAZOAaw04Gs9Q2fa5Zh59OFqBuNvuwKedQ5g16kud61XXE88RiROumo10guwONiSAsAfeUCGYPigzQ5FHQ4YLUbRcA04uMWc4FY46eHBmTBQiLx1RluBfVa9Dj/ouj0xh4kkwMXBlyUtv0uZSOU3T4iLuBRzhPrKNcf2kTUt2z5C5jmtzmlD2NkbA//8osS84LJyFsqp8rN4IWwKx2wWqSmdAeNniTjrgJGXz+0QcfdpkKK6OxOUZVNc+9nrhL2OAD6WJn2RKgOf+AnfNdP4w5aV9vjoy2Xw8WUhDeKHvYV/CfD02GnU7v8lpczJNWQTHVx1SauaGa2Swpqts9oJcWRWuEObVdF1e50GZ73GMKjO02K1DzdbTZo+xK9aXtgf9kaOqokdf0Ym433KxDVxi3zeG6oGyCsH4vDVjoaZZRA4e6CEsvhwrXBOuo11mrbAqz3KicQb2hm3V8Jd6sQ1cqC2tzGZLR8ZQIcgZsPQ8rFV0pgDpFXUbGzjf/pk5hN+nJ6QsyWE7FejBPjU1TorXMfeaEVTTrgw9zqeFmHYdVCjle4zsphBU8uQjrZb2MyYUr9OnI2M4Lixt6qCIvuw5Zstm3bWIIa0jiH7tyC7EUKE3InzpfCTtrIVs9GtKgTt/pnbHGtuJKoTItM6E9mwRetxv4ioESHd1lQ8K2le0Q1iBXn0ftQ/05+JXLf0cnsLNWLXM9LYY7X53JkTFRdjIS3kh7dF+4NhnC/0TbW7aAzIGw2sWKt76s9Jxw3J+Gp+9nGe4aom76K5BrsTnPHg3Y1r56bls5CYQ1IN3rjuHdPxJ2ttls2GoSIK6344ScFz1r2D+Jdc31/8OF2bZyEgirSLK2B350oXaKvol1xPX7iW0rUaXM22hi2RBXStewz9HTUSbqq38krGDlLgkStq2cBMIatP49aremdLbHjJYeceSOgq1ZZ+vKWbrLi56NXIvNDOFmexojYRcx5XWbBxohHBUz2TRsBOwrVLYRwhyhlmNyoAL/yZGwG8GW1ykfwX+TpZSd+dYaflfuOfiPoVOODPP8I/wnF2a1kae8X3sATixA7T64gP/iyNRN/ZbXTf6B/1KAKefbBx/wX4Fw90EE/Ffgmw/d0FfwX4FwjdNuL+DEAuEC4SZQXsj3cP8V2LbDNuUj+K9AuEA4hONm/V0g3I27XqsC4e4AxuAF/ruQkLrcdcN/KcCU8+1whv8KhAuENwu6YT+4/1QkjGVK5bebD5QT64IKtyigvC6+KfdAuQfKPVDugZZ7QFon7IV65Y9GD+AGe+//HCu/HX0A/73969+V344+gP/+5d/fKb8dfQD/nfu/vym/HX0A/73/H/9Zfjv6AP4rc8KNiG1/E04sEO4+CIH/CoS7D0LgvwLh7oMQ+K9AuPsgBP4rEO4+CIH/CoTbOdsoAScWCBcIT2sggfuvQLhAeFoDiQLh7gDG4KVAuBGveW8WCHcHMAYv8N+0AHY59Av/FQgXCBcI94PhtKL5AuE8zjZKFQgXCE8T5gXC3QGMwQv8Ny2AXQ79wn/TAtjl0C/8V9LRjYhtfxNOLOno7iCG/6YJsUu9b/ivRMLdQQz/XQ4wnNY1wH+XAwyndQ3wX4FwO2cbJeDEAuEC4WnBHPdfgXCBcIHw5ZqOVg9uCB8jCCaNaAiCi7+B/HiFhgMjOxjQcLhCoxBrjTIT9BXq3YS/GyH82IO0+GFz7R/+BK0+1h1WAP36Zz5BS5KOx3bRnPBZzH3mcWeA8DitfvzDVu7Dsi70YXV9mBY9HcfovZy+cmTMkib4Lwmw116gbTcY/92wQEde615FzH0cuaeirY+c9vt87SBtFfwXyr38yIIjN0fbAj0vPzKX+J9YoCPCEiTo2yddU6Y9uKbeED553PPxt052BxoPBr61s6KtXz0tDA5O07d28oPVK9q68wD9Q7C06B++6vp4lrZJejJsztLTlo7+x+ftAxNmdtOT/9i9ipghiYdcbNl/Koq+8ZQr7wEOgsy5LHtOkX4wh/6/2bLj6/SDYPlRVl9Om5TNuCbcf72iyJ8eo8Ubzf/4jbto7addYPo6rX3mRvsAmxt30XKDnnN/3fw+X8/aZyqa/+vXhevT/eHa8Tv/ma/RuWiJUo5MRmHWeGVIg4HwdCQ8vnCwQuphSN6jDPHYQeexhOo9/eQkxUPz94r7FKU2Gbyf09cmAFfqAh+CHAk/SItVRQzC9Qc+QVX1CVqdeD0tQM7w/HASwksPNAN+9ePWFg30D0f2rH/mw1R9eBets42PPUhLH/bbAcJtfWXJtEL4BdpWWWC+/OwCVZUMMwZs61HpsDpr+dcO0r5nmwEPwG695wV6mWFqQOmC+sg9c7Tv2QDwzy7QNk83BhZzBuZzSQi32cO24/5j+E1+PK59bED3D3+rffytAIwT6VU6JAifpr+6AeePG/D6faOPf/jqLG3dye+/Q/9y8oDykw90v51kc54ePdiA/xiQ/vF5+lRlgfmDb5tHQTpw8uUzAK10WJ3cXj/72YHlPz6vH3nogTjHnlOm3fMGvH4b9JfXl3MtCZvZdviPoTX58Zj6jmTQnXtOP8pwLQJaM5hDWJ776xvVIxF9PYA9g/rGRkir61C2SBB+nZZvxPljBrz+NWgf5Mjoa4L/GtLR+jm+o5UBDTxqIhBeofqUgqgT/Y5XaMWEuqNhJbQdkv80xBaZzL4kQG7GOThRgnAEtP/zeAw0hl3b8bHHaV1Fl/0gXH38QcdWbc9iDW/8LejH4MED8+ZAWEWVNxy00Pv1adqHL/Eg+mQYtR91e3xekY5WCOu2Pkx/R8rGe14wUfVp2vcIv2agn6Z997jXYM6/dppeVhCfLoQBq+oGNxplUEpRbE6ErNsrH4cRLOC887g3YPiHv3WA+++67ba/9ftRNjrt2m3O08MDC9jKQHGPEaz+7ykBjA6sWuGs26M/PxLG+Vn6chhlA34zFsxZ9qDNjue96/nBtxnIsDWvL+uHlM32unE9k8NXA0jB8kY3imR4SdFnGsSAcPWZY44dWs/ic0Gbn75O5376NZqv2iCs2+PaeIBQXyPg7PX1n3TuOQay6S9Hxgw00EcDhEc0BGndSFSiWghhlkmdpxGNRiYUzpFhfTgm5V2hzX0NJ8YQloEbg7k5evX1IrIWIAmAP/AJsjBN66wjXAX9ELohlI0ewN+Fd05fOTJm4AH/xQCVgRuDmWHXflSR7CMvyCCPotVQnwF4DVz9vg/hsM3v6O1GvYj0ExBubOf3A/8xUCY7ysCNIedDsakPtEWkqyNeF+RyX74uLROBGgOFGsKyHt/mHD32muA/Cx2GyykRuDEIWb79iLZb9ksRru7rU98OdPzj12lLDdQce2QZ/9py+rJ2pG22MlVnCMvAjcEcgDQRJfvpYOhOgRaRa+o93RdsQKSrI153QCDbXANa2ZYjY68J/ktDeMQRK+ZknUg3ZFwKjJhP5jRy2Ib/zpFhWRxTfbkym/waTvRhCXjpVHQExs4padaZgvAuWnLnnythLteLth+n1c982IergXkF0D9g55JXPx7MHT+Q0VeOTCOEdSo6jDwBtU4paUSdKqqW4f72swdpnzv/XMXzvfFA4XeE+eXIRk5Xq8hdiILr95sgnG8P7j8fZhYwzed1WjeMPP+la0oaqWMVVUugtH35c8JuJCzbjflla6PV411bhs2+HtsX/OeDCoDRadwIjCo1u5uebI16LaSUbgBVRbWnRLifU3pn6cvftnPFT+7Y7UTHOfZYGX9O2I2Ef0PtfRnb22w2PoD/fAhZwDSf12ncKFrtmJK2fb1Oa4BoEK3a91sgjEhZRecSTK3NmIPGteMXfdlBQI6M9ZHSkdo7ejRk8I5pRZoXZtglwDheGbRCOEeGu1HHRF+ezCb/ASdGEDaFSZsH4U/Q3Md32cKvx3apuZaof1XchbngiqqP76J1qcjrAVOYhXloqZgM77f1lSPTBGEz3xoBrhOEAV6eS05BeIG23nPQFn69dlDNlUb91wD9Hb1dg92PTGtYP7sQp73d9r9ugnC+PfgsPSDlzuea+VYLOAOmDKDF/QG8C6TnkgUI89zuDQu07W9NhHxSipgtHFUfNdjN+a42h3ocH8F/EYQBoKqijYHwKfoyiroUtPA6TEcb6H3bFGbNzNKWsAgsxx4jg7afYpiLc8saxKoITOqrtjPD5j6FWSotXNFGQljPBSM1/TU6lyzMaoIwwLuL9FyyAGFj8/yNu2jxORMh/zSImHNknGge918iEtbzwVw/pWDpTuS6oEuAUQTseExj/lWBrQBqfh9Htx+8TvQVim3m33Di1CH82IO2mMrATaW+3TSyOc+2olBsLkxvI5oGnAHrB3bpym53Phg6cvrKkdkkCKMC2cI0AeHXnIIrA8rmVPML8lxvDVn0k0g11zINEJ7AHtx/MRQDmDnQqWW7Ak3QhUpkC/MGCEvzxN6ctGv3cfqrsHq6k82CHuca4L8LCWFUIluYn5IhjKpnU8X8g29/XVdkO/PB5yaBsFfMZSJfT1dLX6p4K8PmvpHwBYAwR7so8ErP+6YhjKppOyhogHBYMY3onee2GcJNMlkQVrAzZeMm5E6mllNgjFLNI7tUqapoAKjnyLhETfXlymzyaxHCm52ODgCrQBsWVAkyPqgxJxxWb2NZE6Jmt6BLmHPO6Avz1l6BVxOEVZQopHonjoRfoG3ePG4CwjUYnagWfXmFYfxeG4AzomTVXwOEJ7CnM4T/vXtqtwa5gtlx2lbP2QKiaQhbULuRLUfQLQDmvio3PW3aJKP3ZgDjOkQIb1g6GsB73oG8BGGc46iT09hYZlQ5RVY21ewNGNz0eArU6jzrz+yr1Wa2s88SJZu2ZXiqY+90tJ3XDQuodD8pCB+jRS+FnYawBbVJKyvwmgg6NbhwZbIgXM8HG6Ip+DlLj1zQpcCYOO9VTOfI5PTlymzya/wTc3Rpj5tbmIWoNlo2FEHPzvPWdroySKGHUS9AGZzP6StHhm2A/+oUbg0fGZYTF2YpaAeDSR5U4svcLB3C8qdoSZAIYUC9aZ5XgzrPzjSE8+3ps05YgKVZJuRXTLtwFF4rADb4WFU7J4CvItsQwoC6W7Ht9jmJzU16rE7cfx7Y6nRsnDaeuDBLQTLtGxUhA5JupGoiTBX91ucBzzZ7EqB2IZzTV47NbGOfdPR/CJD7j/+kboVZbvGUAaMbnTrQe/8/EhBW8E9/Vhq8iYGDB9gcmYw5YTsfzERrmBdOgJRItwmXN3kQzpJhGy6hdDTPvXpQk8HMMGo/pqqj/fXIrCeOcuOI1qvWVvPYYSQcQjinrxwZG03LEDbLf7xIVAZzDHCOWKWjpAMwjJctxeloebnRkUdiKKNgS46iXZtSEM61R+uC//zI1AKm7bxfVYx2MuTa9PjvyzpQGGWrnI2NALiXjj4dp6D//R361lctlPNsbtfDNssQFtbT9l6ihOhRgKkLSQduPoTz7PGjZzvXXC91yuzLH5QINjt2wn9eJOsBz8JGkomBK4NZamvP6TZh1BvrZlsSEI7slm2Jl0P9J70fAD9Hhu2H/4Q5YX8+mBGYnBdOQhjriYdUVW4ELYA5R8YaQYOmSm2W28QjnMjg848+jLATVbhZB3awUtXIUoFUmD6ui73iiFZvxGHnhTGf68/3mgHAx0OZylvaxKnneimTsFlHe1/HVAp77jNhX3JlN/wng9SHEeZ2w8pobI5RpZb51FG1Cz4JwrrKeesjdl745Wexg5Y/p3vkHi7ucvShOMtLd+M93UcrhOvis2Bzj1/n2cM+g/8YKJMfdYTKm2Fgbhc+djfr0NXMs/RX2TtpyRCONt4whVluivpbO/2+1fUgWvbS3Tk25+jRAwH4z4cOp1p1ZMlrejG3W1Wc1tUyugpZWOPrQMrXfUqMaBme9c5WYkFVuz08d8w2Y4ctRNB2Tvo3dZq7uS/2AY6yzXxd8B8DZfKjjhp5LS7mZKuKC6M0NHUVctOSIgNLp0L53HNYCywUfQG0dbpYiJ49EMsQ5vZs8/umMMtLUZs+GmVMX/BfAGENSfWGW4ilQGlC9dT5SthZC8HraEiDOgWod88aBxVXOTIa6DZd4JqxicyNuoKvfPjaKA9FTE3bVuZBWMNcfSa1H0OgmSVHzvuLzjIjbd/jtKSgb3yIbSsFGbV0ydUTblv5f/L6ivREfWk/4boYKNHRXTYkbFs5CYRVZFtfF3zgQvY0HcGOWPX7c7TN2/lKDwj8z0D7Mdr4w0A0DWFJl2uLBnmzPXYgAJsmh68TLbdsATkJhFWUWvsQ/gngffKA3SKzmrWV0s58r+jjsKCr0WYN6Sw9yTlhA6GWbSIngbBKZQe+sRt0nKInsY64fn+WPhUWWAHsLfYoMP6jKexSumZtpXQ9MMjsi3fXqm3Sn6e1WfsIfp4cvhyVAorN21a2Qxi6XqdlZ8lQhW0ruXq5BqsGvn9fyHCvq6zraw/kfvo1u9VmdaOtlK770rCvt+NMyZTnCUc87XQCH2oSwmE0W/6OfAX/RfAVo1gLniJvfQH/9YKwUyl8JeqB/ziqK0c3As57Df/1grALrivwNfwXRMKdOHRFN4ITC4Sd6H/CgQb8V6BqoTqpL+C/KxGeG3XN8F+Bbx5wJT/BfwXCTmQ/4UAC/isQ7jmEgBMLhAuEJ4XnRsnj/tsoIF2JeuA/CS7lXB6Y4b8C4QLhnhjt17xAuDuAMXiB/zYKSFeiHvjvSoTnRl0z/FeAmwdcyU/wX4HwBkAYW1eW324+wE1YfosPyj1Q7oFyD5R7oNM9kNo7ul98eOW0htPf/8Uvy29HH8B/50/+pPx29AH894c/UPnt6AP47+e/eqf8dvQB/Pfun/9F+e3oA/ivzAn3HC/AiQXC3Qch8F+BcPdBCPxXINx9EAL/FQh3H4TAfwXC3Qch8F+BcIHwVAcRuAkLhAuEpzWQKBDuDmAMXgqEuwMYg5cC4Z4ARnM4sUTCJRKe1kAC99+0AHY59Av/lUi4O4jhvxIJdwcx/Fci4Z4ghhMLhAuEC4S7p4SnCfMC4e4ALpFwd/jywKVAuCeASyTcHb48cMFNOC2AXQ79wn/ThNil3neBcIEwA3EaxwLhAuGpR/EFwt3ngzGIKBDuF4EXCBcITwO+3Gc7hNWDG4Y0imA1omFyfWwgP16h4cCsHxsMaDhcifVlyYxoZTjQE9lVRYPBUOkKngURWXqhT8CJHNVFx1eO0uKMufaZHbT2SrfI8dxXdqingqgPrJqhxa+8GvXpyczsoGWprxx7cmTMciT0Kfbzi1+SZ0/CZvgL19QrIv3OIVq81vj42tvpxHe6QW39c7c7Pr6OFj93LLJrQ2S+c5/Tj11XOR/0l9NXK4TfHNHeedPH/JDW3uwCrDGt7R1Ym+eHdCjU8+aKfd/5Xpg/NBaj9DcPCTrqJUa6P32vVzS/d4XerN+L7V/bW1HYz5uH7PcE69HHIa0FunA+OSd88jjdXf//LtC3TvYDFvrBIx237j8t9Hma9MMy9Oe1decB+lG0bChDps1m9Qxne9+xf3ybdD/1A01mFujhxLWjPQMlOm6/hfZ8wPT1gT+h1e0d07c5enJk/nwnrf7xB2qGzP3xR+msu7Ro+0dpzrl/2TdzN+2sr/HsTbY9v6+Pf0Krrq62voysatu0Tni8MqTBQHg6Eh5fOFghBUDvUYZ4DKLz6EL1nn5ykoKh+XvFJWeODGnoD1ZGuk/zdKbqInisIZwYwVdB6igtVhXNG2Cee3oHVdUOWptwPe25r8zQ/PajdI7bvbJffeGxXvQNmWpmfw35c09DZiYAZI49mTIzM+ZLN+xDDzJybGafwX/dIXxI+9gAbH35dqqq2+nEhGtu1z93Hc3fdojWuZ0BpQvGjZI5/537aHm5eaCAvqpr73PsOUTL11bk2sM+g//klPCI9uL+MyB8cw2PFY0hJLe1sAshpwEX6HlzhQ6t2TayTgwIGOaDGOQKjmM6NA+bRwa8/jVEetU12Wvk9zFoOLQWDADWhrRXsBH+kyF8nO7Gc6YNMH901DzmMQLjBGBWOqxO2+9pengG548b8Pp9a7kcGb+daPPJA/Tw0Wabw4HCj/bP6kdcCtcO/0XwVYC5hfZUFTHAzt78J1RVIahyoJyjJ0dmJy19APbcYsDrt1HXsP2jtHRzs02A+NLNFsqq3c1/Qnu8dhl95UFYP1d4tDKggUdNPCd4hepTHoRBxxVaMaHzaFgJbYfkPoYwV6ZyG5nwduQC/0KHvAn9uAkZKO6RwVjD8xev0vKMhbIrm36t2yw+7UfQSvf2o6ZfgDOG4dr2iqpaxoK6yZ5sm195lc6pwUDc7/vmOpttttcD/zFQJj1GsDp5LAmrtG7dZjEAo9J92yFj20bJ/ITaIYy+rqPlMKLHAMMFsxkwwH8MH/eoYDnvRpEMuABOQWTo6sBrQLjaO3L60Ho8oGVBmOgPb47pTRU1JyAMqHp9Eb25xkAOIa/twPXzQEPbPqZDh1x70W5MhxIRNdpbGFo4KfDMuNEoQ1CKYm07SZcLUfTHYK9lAeedxz07fnSUgWx0Z8hk2ZwJYd8efe13C/DG9UgQVhHjB9xIk8EUAMyLHmMA5ujJkXkXg4A/vsWz9ezNDGTTbyuEd9LSTb6Od/98Jy2FEXVOX3kQHtEQpAVkOeqVQBRCmGVS52lEo5EJhbNlhGgc/YyhizuczhE3YQxRGbgx5CyMYh14T+txYQo5D8IKhkKEjch7Zr+JoHPsyZFx7ZXhn2UzR/W90tEycGMwN0ed5w24qxq4Wl6CcH+Zn9D55dspBL4/QJCBD3gjWvdlU3PCMnBjMIdgk//208HQHUA0EWWGQNd/I7oN2ntRcN4gAdeCiFlHzi1tGuyTISwDN4ZcDny1DNoi0tURrwtyua8a0Cr67C4T2Xx0gSSY+v29E6TC0f+smJKWISwDN4ZlDF0f6Dl6usv4ff0FAdR+RNtmn9RGtifqKwvCI45YkQoO5nld3qVAivnkJnhDR65MU/+uLVN4LUNYp3XDaPD9jinpENCIcmvdTRCu09859uTI5EDYlbGvPZs3BMI6FR0BrWNKOoTbiduqFlj+hDrJLN9Hy+48diXMP6truI6Wl+289Inbbo+j42Rhlk7jetEqQNcxJW1hOqY1wC+IVv+wtkKH3PnnakB7E/PBf/hDCsLWZqST8X+FX/TlDwIQUa/QvIry5cGGtddEwV5GwB9ooI8QQD//lU7rRrDqmpLGPKyKqiWY2r78OWE3Ep5Mxrue0OajB+hhd964mqW7xTlqHmCcpm9hABFE6twH/BcDRqd6I6BNnJLO0TOZjD8nHETCN3+Ulty55eoDtMeZD46vE8B1o31A29rT2FcOhEdDBu+YVqR5YQZeAsLjlUErhLNlLjUIm3nbGpQMnY2AMHTXES4gJ0ekKh3NEM6xJ0eGr0Md5X7DAYP6O7LZwhn/xCEAs/4287YXBMLQLaR+Pbu6yizfTvO33WcLyL5zn5rXlq5jHiC69jqabyg4g/986BhIVVU8B9oDwnouGKnpFXozLMxaG6oCqrrw680VNR8dDQJUxJuAsCnump/H3K2JbN+UIl2Al+ekMyAM25IDAr3ZDgNrAQaGAAAYv0lEQVSlPpripY2BMMC7QN9KRbSmr60ziFBNhHwyiJgnkGm1+egCoeirLjI7eUDNfUftfvUOqSga9yCKxCYpzDIFTr0hnKNnApm5DyDSNenw7beYOWInPX7znxCKteoCsu0fVfPa0XVwCh3yIaSNPa19tUNYzwdz/ZSCpTAnqzg8CYTHYxrzr5o+FkDN7+PIMgXC9fzv8nZOMVuQKeDWYH6V1r6ygxa3O4VgOYDNkekE4aMk2cywvvggfIiWb3OKorhYyzv2kPmOUwBmdPqpb8wbH6JFY8P68n26+jsxKNgsCDPoUeA1H6aT34yjVQXtMGLOgXAITAwcnEgWldUW7m0QxvtS6ttGw/BfDV8uPNpACP9ov5v+FSJhBmwYjSKC5TnpCWQimIaR8Ek3wrapcn8OmKNg8z7AXU2Qjs4BI4Os6ZijZwKZCJiIzN1IdnsQGf/5X5BKoQdzyToiRhT8AVoKK74ZwiGcw75aIazAGpSxp1LLCQjHqeaRXaqEJUaAepSOTshcahBW0amTMmZ49YqEm2D2Ki1vnzEpPL2EyZ9/zkk158hY8KcicIarPjbZrHV1hvDJC5GO7gHXiSHtzFUj/VxDFnPCYYX3MZX6DuekEZmLEFYp342NhBnCOKYBa+GmUt8OPG375kjYAtboUhEyR74j2uuBvQXCddrasUsNBOzfIoQ3LB19nO720rhpCEfwVOA1EXRqUODK9LHZBT4PRIKjioq9a9GAhv/iNK1NyXrvTSsdnQK1Ot9SsZ2A57to6wKcBxMT9gX/ydtW1vPBJuesQOssPeJUNI4pCCfOe9XQ2TKJvgmRtWvM5r+GE33wAC6TFjm5cJNeH6VFIQKO+7VtER3bZUw59uTIWP3tEM6zGf7z0rwezBxQRec3qjCL+7DRZ9qe/jJYRhUtUXIhnEpzJ87DfxZwDBcZTgqeIhi5nXQUip7C6HRtGC9RCmSsjQkIpwYOLoRVOj0IDszcMfwQAjznetEuioR/JcCS07McnQaQinW8Qz9XUWjaXg1eO9/r6cgBrCeTZzOWLUVLlCIIu4VjJiqOZJogLBcnTa8wKzEoCCCMZVTREqUEhNPXktcXD05w/4kQtvPBDLWGeeEESIl0m3B5kwfhHjKa/8LGH2zyJh3hRAmGfiQKeMmQk9r65xDlCinor7jnXqW1p90NPOL52hx7cmSsbXEf9r0cmzXQ4b809BiQ8jGuhJbB3K7/mJiCPvE5Ny29ETL+uma2y0tHA7bSWueJIGyiVQ+4MpgtHGUAo/o4WjaEzTBq3bqgKpx3TUfLKQhLy6FMMVndV2hj8zWp5VXJtlqXDGEzH+oBV4acB85WMMs6sC43SgcH0MuRiSqho8GEBn64RMqPcrWNoT2x7iYImzSuFynKYGYYpY4x7GI9OTKrf1xFS5TUsqXaRg3PMGWtdAvpaKWvbutXUbf3ZeUTEPbng5llyXnhJIRN9XPlRrECmNWuXHkyQ17apALwoV5CxQZO6ZiCsI4UbTSKHaTCzTrWVApZWmtrI8617cLyI8zfhmuA6yKso2o9crisKceePBljWz2H7MJfv5djMwO7D4TPm5Q0b2KBXabCzTpO3HYdVZWw7taJrFF5HG3wAeg5S4I2Tgabbth5Ycz5zgf2oeoaqWe7ecgGbNZxKN6sQ1chN82ZGsg5FcpvrundsdyoU2/oYeeFtUxCrynAqouv3PSwea8GuinMcvvyBw1NENbv2cFCCPBmCHOFNAMLc7tVxQVWGkC6mlmeK5XhLEP45ybdzH393BRmeSnqHBmTkmY9ss3upiDv0I+OHgjme42NO+3csZapxKVN+P+VAepD7exN8WYdunpYmFfl1K46tuvhimQGqNSXSh87m4e8awqz3KIrwNNu5vEXdPZm7KAl2acHAt58smuzSUmzPVJf7DMBwhqS6g23EEuB0qRVUucreS3veDSkQZ0y0rtnhSnkPBln+8tqcFEAGNyHrxgo0bFlC8h2COt5WvV51D7Un4NNNQN8zvaYDVtEvt9ij7K/VUayyR1ISO9LNmtg49o4Iux0dJf7CFXE7RDW0ano43oryY2SQUR/jE5gh67687yOFp2lSNoHgkxti58VgN0+mBzYuMuGhG0r2yEMXdjowi4ZqrBtJVcv1wA1S5fqaxrYCudaRkfMvp8FUKOymrfaxFKnqC99fSrSrvvD/RXr6hMJK4i6S3lQ4RxUCE8CYRVJevYG8EaVMm+RiWVDXCntRtdZMm1bbZolR7UtUl+n6eGd2CXLfOdj20rJnrbnCbvLfYRtK/Mg/BcEiLVuf5kl81GrB8uPuFK6BuhOWr3pA87WlZKMjmKbImEFWFRW85adYl9aj/Jx07aVUwouL6lu4cQIvlyIVY6tvoH/OsHXiWSv5PbwXxLCNQAdMJdznr/gPzlqNXOhLgTL68hX8B9HdeVo08y5voD/xDnhS4qCUzYWTiwQNinqDoMO+O9Khmjfa4f/CoS7DzLgvwLh7gMO+C8XOEUuhjT8VyDcE+JwYoFwgXBfmHZtj/uvQLhAeFoDiQLhGKyTDDYKhHsCGM0LhLsDGIMX+K8rgEq71Drh7lC60oCO+29aALsc+oX/JoFOkfWhDf+pSBjzwuW3mw+UE7mAoRxtMUfxRfFFuQfKPVDugfZ7oBRm9QuHAeG3fvnb8tvRB/Df6bf/u/x29AH89+7fPFp+O/oA/nv/v35bfjv6AP77/bv/U347+gD+K3PC/RisRjkFwt0HIbgJC4S7D0LgvwLh7oMQ+K9AuPsgBP4rEO4+CIH/CoQLhKcaxeMmLBAuEJ7WQKJAuDuAMXgpEO4OYAxeCoR7AhjN4cQSCZdIeFoDCdx/0wLY5dAv/Fci4e4ghv9KJNwdxPBfiYR7ghhOLBAuEC4Q7p4SnibMC4S7A7hEwt3hywOXAuGeAC6RcHf48sAFN+G0AHY59Av/TRNil3rfBcIFwgzEaRwLhAuEpx7FFwh3nw/GIKJAuF8EXiBcIDwN+HKf7RBWD24Y0iiC1YiGyfVfgfzYefDCYEDDofD4wSyZEa0M7Ubyg8FQ6Zry44Sb54RfPU6f5k3ZZ3bTU6/2jxyf2lHRlv1vePD8+/3OZuve57KbnnKWDv39/t20pX5/lj4d6Hnrl2/QUztmrczMbnqoxWbJHkS57X1pXzRC+OXn6c6tZhP5rbvo8Mv9gAVoHd5W0fX7TkXR9/f27aLr2Tdbd9EXg76+ty/l4110OLG8KKuvapbuFOxxo/SUnlYIf34X7bnK+O+qWVr9fEdgteg5e/NVusCE/VcfZ2m1Xjr0BVq98Sq7Of5Vs7QU2vP5W+z7tY6K5m7+go32c2TqPvX1rt4Y6HDeb4Tw68dpcdb4b3Y3rb3eBVhv0NquWfvAjtndtCzoOffobitTzdLio280zlWv7apoPpR5/YCjw9hdCXLOciRRz3/9ljx7Eja3pqPPvkQLc8aOub304tku6du36MU98/a+mNtLBwM9Z5bmE/ffXnqRlw6dfczqcO+tpbecOe32vgDPM0t7HV3ztODp8K8RsqG9DGAcWyE8XhnSYCA8HQmPLxyskAKg9yhDPAbReSyhek8/OUlx3Py94pIzR4Y09AcrI90nHmWYHCBEI4YLegJO5NSqfzxOn64sMP/+6G6qKh+KvnwGoJUOq5PbA5wPHfXB/NbR3fTpo1YnQL1lx3H6e4byqwcUbF2gh0DVcG+wOWGPajdzwOnrOD00E9sN+9MQfp7urCwwv3dkF1VVGngutJKvlQ6rk+UUYLc+WkP+e0cepeurWQ/Eh7fN0hePBPA+sovuPJIYGLT09T0G98vP0xe3xjaxbacTevh9+E9OCe+iPXh0mwHY2XsxiHChmAvkdj2A69K9DigBuXtnac+9to8QhBrcgT2fv4WWnDbideXIOJCFHfAR+yHUiffkwqzjtOgA7Nx39f/vmgMwuZ0P6hBy5x6FPbvJ1YNz87uO0znWbWAaQZbfV7YIcH39AC1/1++/0caEHmXj7IF60HHuu4D7rDh4gP9cqNjXL9EC/G4AdWZ1L1WVA0WGY8vxxT1WB3Rr4Pp6AOmDqy5M/4d+v7qXFlYdIJ59jA66fwv95vSF/uf2vERnuL2BO1+nvn4MPnjgMN8Hwvq5wqOVAQ08auI5wStUn/IgrB70SysmdB4NK6HtkPynIebJVG4jg9WRC/wLitq0ctyEDEP3GIHol28kQeS2S7/W7dGfC05Erw/tPx7Y8AY9tMOBoOnbhTL6UTbusG0B4cr5W+meqTyYW/sa7JmZjSNoANsFsxkM4HoYKO6RwVjD6u1TzbBiqCWPuj368yNhwN4HLuxA9Flte97Ydoq+uI9fM3RP0Re3PUrWPj6PY6ovnI/7UqDdKulK6bF94XpCsOBvBbmrbqGzNZC+QEtXpWEk6cjT8wVaunlXYMMXaOlGt+9HCRCubnTltD0uqN/NAWyOTHDN8NGkEGYQ1WD8rzdoeVYAH4MxcQSEq13HHdBrPYs1LMO/NURV/147hquWxzVFkJ4Iwik9GHzEwI2vQ9sDOyx4LfQULOces7B69y06OOcDVWoXngMYqz0vOX1oPRawb9HBJfd92PAWHdzj9v0/9PtMCLf2NVf5cOeBgWcj+nuLzihA94LwSD+zF5DlqFdiUQhhlkmdpxGNRiYUzpYRonH0M4Yu7nA6R9yEFkwcecrAjcHM8u1HtN2yPx1RejYEUTDD1AdsDGEFZo6U1RHXIQDVAFy2R197CPy3EHl7gNfXDP+58NWvNXx8WP43xWC2MIp1+O+h7fX7hKjzZUS9QoSNCFQEo9HbEAUn+zJwjqJn2FAD39qd1mNl4L8YoDJwYzDbSDXWgfc66gmiYNZtBwSs+yo/JZ1ox+3VMUfGQBjXO3fzrsbBB/wXR4saUCHkYjAzGJuPFuSQg24XcgaGAXBTEMb5+UePywOC7+4mC/cWm1J6VBTuR+rKP4iaZw/YaN0MOuC/EJwKggJwYzBbaMc67Ht11KmiT0C4GWxRFIx2YWTMkWxwbO5LDwB8UJvoPISw0otsQLOt8F96idKII1akgoN5Xpd3KZAiXdwEb+jIlWnq37VlCq/hRA+ACl46FR2BqGtKGgBTUaQMd79/yLhRcBrwiHwjG2sIv0FPmRS2r/+3pIDaZI+6Tj9F/tQOeX4Z/osBqlPREaxUalYAZjL6NbAC5BRQBbg3QViCs+oLeqTI9b/pdFNfaKuuwU9tH94Wz0G36jHXDP95kFIA0ilkL8rE+YlT0l30ANx+FBzb9wVaBSC9yBj23UJL7vxzdRXtceeD1TVkyEAOc8fKDnkgwTbBfzGEdSo6AlrHlLTV/watmdSzPSfDEpFn1D8AqUAoDxLe/+4BWnbnsVNzy016miAcpNFxDfBfDFCdirbRqgFqx5S01f8WvWjSwfachbU+B1AGUbCC8GN00J2jrprncjGQaO9L941oPbrWjYDwaMjgHdOKNC/MwEtAeLwyaIVwtsylBmEz3xoBrhOEAVWel82A8NHdQbo6AeEa7PH7KmLHCA0p7agwK9Me2AEdM7O0paEoTYSwAmMVz7d2gjCAyeAWIPx2Qzo6BeEju4KUNkembX0ZObSHb7bO0vViwVmmnlR1tCle6g3hLnrunU2mfgE+PReM1PQtdDYszELbG2+xBWSfv0XNa3vXkSOjInieb+4AYQUiAYI9IKwiW3zmuw7QOaEwy4NyDUkX0AAvR6gpCO+m+V12Lvf91w+oeW0f5m16GtLRuRA286QRmHpAWM8FIzX9GJ0JCrM8IK/ureeho/N7HrPFYWcfU3PWkY2cXsZn1dYXQItrlaDfH8J6PpjrpxQshTlZxeFJIDwe05h/1fSxAGp+H0eWuYIhjCpjC/M2CON9OX3sR7PHgznjGMSQRzHZlsrXl2UPqsLNnPTfHz2gK8QT0fmFhjCqnm1ELUHYzP/Wke0pOow221KFYNAhzOu+jXR5e1+nUfFt5pJRAKaqv+u+NaSz9DRFwl3gqSLoID09sR4AL0gxS3oBY8C0CmQ/v8uZw9a2KGi7EXOGzNmb3aKwiwPCDFkUeKWKnLTMcVoGqIM5ZlQrW5gmIPy6U9xl2odp7Rw9av63Tj0jet9Ni7vkwjQxEr4AEGagosBrLpnibUhVn3WKqRQgm9LIOsJt7gsyL8Vzz0a3trdPOlqB1Za4w9HJ1HICwnGqeUTDgdU5ANSjdHRC5lKD8C83Kh0NmNnCKZ7b9QuzHIA2RLcWwnkAZnm/eCvHHjdSZtuw9Cks+tLviRBW0elGRMIAnltQJUNYFVJt4yVIeslQcv65Tjdz9MvHnL7cCJfbnQqKwHL0cNvUOuEuaeQAwAqeE+oBtFtT0bafCLASsJFCb9PpyeyiPS60E/Pa00lH68g2BCMD+v3/kgGM84venHECwgG4lV5vLjdXzxu0vMv+P2C5lLK5BrON0EUIv3uh0tEGjliSJM3BNkalui3DXB0RmSej2Ja+WgGsId19TrieDzY5ZwVaZ+kRp6JxTEE4cd6rmM6WSfRNiKxdYzb/NW5CBpY9yhHrxIVZKn1tBy5qMIQBkfm1EbIGWrt+G6FaWxmUOAbLnDA/DBs4is2xJzUQSJzHtcRzwjIsk2A0UWGkR6Wvrb/Yb3y0EbKFGutIrc1N2pDTVwrg7vkcPc714loYKPYoR38Kem1A80A4mZ5m/cESJvTjwVNHx9ESpUllIO/8j4SvvdT23zyqZC0EGS4y5FIgituzHhyF9b4eGFkWgIwj4BqkDdfEETKi7GiJktuXSqen/x9Yj3Q9iI7DQjXIwb8e2FQkqAuY/GU7JvJsgZ6kKzqXgGdT4Rei2miJUqQnWOaEa4lkDFzD6msvAmbg94iE7XwwQ61hXjgBUiLdJlze5EG4h4zmv7DxB5u8SUfchBLQYiDKYJbaps8161DRJgOzLrBiyIbLlvT5p/ZzEZfWLVZQN+kM1/8CttJ66IkgLFVCy2BmaOYdUzpO0WFvDbA8T4w+1NKlIH0s9y30pea6eX7aAb8LYQewWq+gx5HB/WfhG0SZHnBloEpt3XMxWNN61DIkr0+2R7fxlyiFy6h01B0uJfKj5RwZ7pOPaXtxnfCfBJ0YuDKYpbb2nG7jL1HCRhizQaUxIs8YwGuPxue0bskWf10z26D68qJohr4eIMjLrt6gte+6gwd5nhh9yBCWgCuDOQKsBzPdJox6U7BVy5lEyOvIXBwU1BF1bl/C8qd3/4deXBKKwVRGoFN1tD8fzCxLzgsnIWyqnys3ihXArDbdyJMZ8tImFYAP9RIqNnBKxxSE3zIpaU4dYy413KwDm2xgA4W2XakslJsgbCCaACaqk93ds5ROgLFOdxvdzoYemM9FcVUYcbfZw6lnuzFIemkV/CdDTFdI8zIlzJOGm3VgAw34L9zdStYH6MlAU9EtF2GZzTPsGmEHlrz+tyuEGeLbnrfri9s260jYzNcI/7nQtK99YGGeNNysA5tsVOG8rBcJA2TtenSfBrQNEEY1NC9TOnuv3h3LjUz1hh6hjD9vnCNjfQD7u0FYpYCdtbiYSw032cBOWPCptAOWB0tnIw698YVf9LW2iwuuHECiOGtCeOpo1c4LN22y4dkX7LylwM1FWK/r5VDhQIIhn4Iw5ku9zTqW4s06sMlGlZzfRTRpwO1sjnFmVe98FRdUGYiKEP4f0htx2HlhrccFZF5fL+7xNwpRgwikwWuYcxRsirYqVE4LEbYZbMB/wRIlDUn1hluIpUBp0hip85W8lhc7Ww3qVIrePStMIefJONtfVoOLAsDgPnxlocRRpzm2bFs5CYRVZF37EZ9FDO90JKznqNXn6ukQNv5QAwPzWWPbynAnLhNhN9tjljfVfUlbZGofwSYGSnRs2bZyEghr0LqpOBfezvaYLdtI5kTCzX2h8GvWbpHZ0F+zHj04gP986HAEiGU6zdtW5kG4XQ/3n46EDQwV9M1ngG0rw122/sYsXarvm6toTycZ7QMVRde60K8PdNgN/zFQoqO73EfYtrIdwibarOdXK6qwBWQUZbr3pX0tpX81IK2MPwgwS6Dqa56lRa8vC/lmPc52nallTo3rhA2I3CVBwraV7RA2IFawNteMbSsTUEtHwlqPWnJU+2ZegCOiXGcLzKgvPbCQvkf9KFuSc4FvQa10vfXzf5lSDHl5dAsnJiEcpYQDSJf31ZdgBF8n3VrecyPx+DXuP4ZgOToDkCiil9+D/yL4SgVO5ZzoJ/ivOaVsgVPkYl/Af0EkfHmAcTOvAk4sEO4+uID/CmhjuOb6BP4r8JUBm+MX+K9A2EbIk/oC/itwjeGa6xP4r0C4J7HhxALhAuFcaG60HO6/HNgUGRnU8N+k4CnyFtrwXy5wilwMa/ivQLhAeKqDCNyEGw2mK0kf/FcAKwM2xy/wX4GqheqkvoD/ClxjuOb6BP5TEMa8cPnt5gPlRDiy/BYflHug3APlHij3wIT3wP8HK/w+yjlX+E0AAAAASUVORK5CYII=;" vertex="1" parent="1">
                    <mxGeometry x="290" y="630" width="481" height="193" as="geometry"/>
                </mxCell>
            </root>
        </mxGraphModel>
    </diagram>
</mxfile>